<svg xmlns="http://www.w3.org/2000/svg" width="237.93797302246094" height="246.66796875" viewBox="-9.919208526611328 -11.545446395874023 237.93797302246094 246.66796875"><title>Neo4j Graph Visualization</title><desc>Created using Neo4j (http://www.neo4j.com/)</desc><g class="layer relationships"><g class="relationship" transform="translate(125.04865375209693 126.37252634610356) rotate(407.6905255713945)"><path class="outline" fill="#A5ABB6" stroke="none" d="M 25 0.5 L 27.63887225509506 0.5 L 27.63887225509506 -0.5 L 25 -0.5 Z M 73.20137225509507 0.5 L 75.84024451019012 0.5 L 75.84024451019012 3.5 L 82.84024451019012 0 L 75.84024451019012 -3.5 L 75.84024451019012 -0.5 L 73.20137225509507 -0.5 Z"/><text text-anchor="middle" pointer-events="none" font-size="8px" fill="#000000" x="50.42012225509506" y="3" font-family="sans-serif">ACTED_IN</text></g><g class="relationship" transform="translate(125.04865375209693 126.37252634610356) rotate(310.917940999747)"><path class="outline" fill="#A5ABB6" stroke="none" d="M 25 0.5 L 30.186428712850358 0.5 L 30.186428712850358 -0.5 L 25 -0.5 Z M 75.74892871285036 0.5 L 80.93535742570072 0.5 L 80.93535742570072 3.5 L 87.93535742570072 0 L 80.93535742570072 -3.5 L 80.93535742570072 -0.5 L 75.74892871285036 -0.5 Z"/><text text-anchor="middle" pointer-events="none" font-size="8px" fill="#000000" x="52.96767871285036" y="3" font-family="sans-serif">ACTED_IN</text></g><g class="relationship" transform="translate(125.04865375209693 126.37252634610356) rotate(254.11386955647163)"><path class="outline" fill="#A5ABB6" stroke="none" d="M 25 0.5 L 30.340247301738472 0.5 L 30.340247301738472 -0.5 L 25 -0.5 Z M 75.90274730173847 0.5 L 81.24299460347694 0.5 L 81.24299460347694 3.5 L 88.24299460347694 0 L 81.24299460347694 -3.5 L 81.24299460347694 -0.5 L 75.90274730173847 -0.5 Z"/><text text-anchor="middle" pointer-events="none" font-size="8px" fill="#000000" x="53.12149730173847" y="3" transform="rotate(180 53.12149730173847 0)" font-family="sans-serif">ACTED_IN</text></g><g class="relationship" transform="translate(125.04865375209693 126.37252634610356) rotate(200.66300370340434)"><path class="outline" fill="#A5ABB6" stroke="none" d="M 25 0.5 L 30.345352448929972 0.5 L 30.345352448929972 -0.5 L 25 -0.5 Z M 75.90785244892997 0.5 L 81.25320489785994 0.5 L 81.25320489785994 3.5 L 88.25320489785994 0 L 81.25320489785994 -3.5 L 81.25320489785994 -0.5 L 75.90785244892997 -0.5 Z"/><text text-anchor="middle" pointer-events="none" font-size="8px" fill="#000000" x="53.12660244892997" y="3" transform="rotate(180 53.12660244892997 0)" font-family="sans-serif">ACTED_IN</text></g><g class="relationship" transform="translate(125.04865375209693 126.37252634610356) rotate(503.96701622241824)"><path class="outline" fill="#A5ABB6" stroke="none" d="M 25 0.5 L 30.208462497760905 0.5 L 30.208462497760905 -0.5 L 25 -0.5 Z M 75.7709624977609 0.5 L 80.97942499552181 0.5 L 80.97942499552181 3.5 L 87.97942499552181 0 L 80.97942499552181 -3.5 L 80.97942499552181 -0.5 L 75.7709624977609 -0.5 Z"/><text text-anchor="middle" pointer-events="none" font-size="8px" fill="#000000" x="52.989712497760905" y="3" transform="rotate(180 52.989712497760905 0)" font-family="sans-serif">ACTED_IN</text></g></g><g class="layer nodes"><g class="node" transform="translate(125.04865375209693,126.37252634610356)"><circle class="outline" cx="0" cy="0" r="25" fill="#F79767" stroke="#f36924" stroke-width="2px"/><text text-anchor="middle" pointer-events="none" font-family="sans-serif" dy="1.5625" font-size="25" fill="#FFFFFF"/><text text-anchor="middle" pointer-events="none" font-family="sans-serif" dy="1.5625" font-size="25" fill="#FFFFFF"/><text text-anchor="middle" pointer-events="none" x="0" y="0" font-size="10px" fill="#FFFFFF" font-family="sans-serif"> Hugo</text><text text-anchor="middle" pointer-events="none" x="0" y="10" font-size="10px" fill="#FFFFFF" font-family="sans-serif"> Weaving</text></g><g class="node" transform="translate(197.63967621699692,206.12252191674904)"><circle class="outline" cx="0" cy="0" r="25" fill="#57C7E3" stroke="#23b3d7" stroke-width="2px"/><text text-anchor="middle" pointer-events="none" font-family="sans-serif" dy="1.5625" font-size="25" fill="#2A2C34"/><text text-anchor="middle" pointer-events="none" font-family="sans-serif" dy="1.5625" font-size="25" fill="#2A2C34"/><text text-anchor="middle" pointer-events="none" x="0" y="0" font-size="10px" fill="#2A2C34" font-family="sans-serif"> Cloud</text><text text-anchor="middle" pointer-events="none" x="0" y="10" font-size="10px" fill="#2A2C34" font-family="sans-serif"> Atlas</text></g><g class="node" transform="translate(199.01876748889524,41.033102686016115)"><circle class="outline" cx="0" cy="0" r="25" fill="#57C7E3" stroke="#23b3d7" stroke-width="2px"/><text text-anchor="middle" pointer-events="none" font-family="sans-serif" dy="1.5625" font-size="25" fill="#2A2C34"/><text text-anchor="middle" pointer-events="none" font-family="sans-serif" dy="1.5625" font-size="25" fill="#2A2C34"/><text text-anchor="middle" pointer-events="none" x="0" y="0" font-size="10px" fill="#2A2C34" font-family="sans-serif"> V for</text><text text-anchor="middle" pointer-events="none" x="0" y="10" font-size="10px" fill="#2A2C34" font-family="sans-serif"> Vendetta</text></g><g class="node" transform="translate(94.05105623084104,17.454553657142178)"><circle class="outline" cx="0" cy="0" r="25" fill="#57C7E3" stroke="#23b3d7" stroke-width="2px"/><text text-anchor="middle" pointer-events="none" font-family="sans-serif" dy="1.5625" font-size="25" fill="#2A2C34"/><text text-anchor="middle" pointer-events="none" font-family="sans-serif" dy="1.5625" font-size="25" fill="#2A2C34"/><text text-anchor="middle" pointer-events="none" font-family="sans-serif" dy="1.5625" font-size="25" fill="#2A2C34"/><text text-anchor="middle" pointer-events="none" x="0" y="-5" font-size="10px" fill="#2A2C34" font-family="sans-serif"> The</text><text text-anchor="middle" pointer-events="none" x="0" y="5" font-size="10px" fill="#2A2C34" font-family="sans-serif"> Matrix</text><text text-anchor="middle" pointer-events="none" x="0" y="15" font-size="10px" fill="#2A2C34" font-family="sans-serif"> Revol…</text></g><g class="node" transform="translate(19.080792292751244,86.40878331107784)"><circle class="outline" cx="0" cy="0" r="25" fill="#57C7E3" stroke="#23b3d7" stroke-width="2px"/><text text-anchor="middle" pointer-events="none" font-family="sans-serif" dy="1.5625" font-size="25" fill="#2A2C34"/><text text-anchor="middle" pointer-events="none" font-family="sans-serif" dy="1.5625" font-size="25" fill="#2A2C34"/><text text-anchor="middle" pointer-events="none" font-family="sans-serif" dy="1.5625" font-size="25" fill="#2A2C34"/><text text-anchor="middle" pointer-events="none" x="0" y="-5" font-size="10px" fill="#2A2C34" font-family="sans-serif"> The</text><text text-anchor="middle" pointer-events="none" x="0" y="5" font-size="10px" fill="#2A2C34" font-family="sans-serif"> Matrix</text><text text-anchor="middle" pointer-events="none" x="0" y="15" font-size="10px" fill="#2A2C34" font-family="sans-serif"> Reloa…</text></g><g class="node" transform="translate(33.684623311851965,192.83277321618922)"><circle class="outline" cx="0" cy="0" r="25" fill="#57C7E3" stroke="#23b3d7" stroke-width="2px"/><text text-anchor="middle" pointer-events="none" font-family="sans-serif" dy="1.5625" font-size="25" fill="#2A2C34"/><text text-anchor="middle" pointer-events="none" font-family="sans-serif" dy="1.5625" font-size="25" fill="#2A2C34"/><text text-anchor="middle" pointer-events="none" x="0" y="0" font-size="10px" fill="#2A2C34" font-family="sans-serif"> The</text><text text-anchor="middle" pointer-events="none" x="0" y="10" font-size="10px" fill="#2A2C34" font-family="sans-serif"> Matrix</text></g></g></svg>