<svg xmlns="http://www.w3.org/2000/svg" width="480.9838562011719" height="233.98703002929688" viewBox="-120.1862564086914 -32.58795928955078 480.9838562011719 233.98703002929688"><title>Neo4j Graph Visualization</title><desc>Created using Neo4j (http://www.neo4j.com/)</desc><g class="layer relationships"><g class="relationship" transform="translate(128.2838510407136 76.60053648205388) rotate(349.3624565806707)"><path class="outline" fill="#A5ABB6" stroke="none" d="M 25 0.5 L 25.855767420726018 0.5 L 25.855767420726018 -0.5 L 25 -0.5 Z M 71.41826742072601 0.5 L 72.27403484145204 0.5 L 72.27403484145204 3.5 L 79.27403484145204 0 L 72.27403484145204 -3.5 L 72.27403484145204 -0.5 L 71.41826742072601 -0.5 Z"/><text text-anchor="middle" pointer-events="none" font-size="8px" fill="#000000" x="48.63701742072602" y="3" font-family="sans-serif">ACTED_IN</text></g><g class="relationship" transform="translate(128.2838510407136 76.60053648205388) rotate(184.23119969943093)"><path class="outline" fill="#A5ABB6" stroke="none" d="M 25 0.5 L 25.838197230449104 0.5 L 25.838197230449104 -0.5 L 25 -0.5 Z M 71.40069723044911 0.5 L 72.23889446089821 0.5 L 72.23889446089821 3.5 L 79.23889446089821 0 L 72.23889446089821 -3.5 L 72.23889446089821 -0.5 L 71.40069723044911 -0.5 Z"/><text text-anchor="middle" pointer-events="none" font-size="8px" fill="#000000" x="48.619447230449104" y="3" transform="rotate(180 48.619447230449104 0)" font-family="sans-serif">ACTED_IN</text></g><g class="relationship" transform="translate(128.2838510407136 76.60053648205388) rotate(474.85193413750693)"><path class="outline" fill="#A5ABB6" stroke="none" d="M 25 0.5 L 26.506304149979314 0.5 L 26.506304149979314 -0.5 L 25 -0.5 Z M 72.06880414997931 0.5 L 73.57510829995863 0.5 L 73.57510829995863 3.5 L 80.57510829995863 0 L 73.57510829995863 -3.5 L 73.57510829995863 -0.5 L 72.06880414997931 -0.5 Z"/><text text-anchor="middle" pointer-events="none" font-size="8px" fill="#000000" x="49.287554149979314" y="3" transform="rotate(180 49.287554149979314 0)" font-family="sans-serif">ACTED_IN</text></g><g class="relationship" transform="translate(128.2838510407136 76.60053648205388) rotate(309.44444378445684)"><path class="outline" fill="#A5ABB6" stroke="none" d="M 25 0.5 L 25.638098243972543 0.5 L 25.638098243972543 -0.5 L 25 -0.5 Z M 71.20059824397254 0.5 L 71.83869648794509 0.5 L 71.83869648794509 3.5 L 78.83869648794509 0 L 71.83869648794509 -3.5 L 71.83869648794509 -0.5 L 71.20059824397254 -0.5 Z"/><text text-anchor="middle" pointer-events="none" font-size="8px" fill="#000000" x="48.41934824397254" y="3" font-family="sans-serif">ACTED_IN</text></g><g class="relationship" transform="translate(128.2838510407136 76.60053648205388) rotate(508.6739462272889)"><path class="outline" fill="#A5ABB6" stroke="none" d="M 25 0.5 L 25.829866661730932 0.5 L 25.829866661730932 -0.5 L 25 -0.5 Z M 66.94314791173093 0.5 L 67.77301457346186 0.5 L 67.77301457346186 3.5 L 74.77301457346186 0 L 67.77301457346186 -3.5 L 67.77301457346186 -0.5 L 66.94314791173093 -0.5 Z"/><text text-anchor="middle" pointer-events="none" font-size="8px" fill="#000000" x="46.38650728673093" y="3" transform="rotate(180 46.38650728673093 0)" font-family="sans-serif">ACTED…</text></g><g class="relationship" transform="translate(331.7976023680355 109.45834303361457) rotate(207.28206662384645)"><path class="outline" fill="#A5ABB6" stroke="none" d="M 25 0.5 L 29.893216752891774 0.5 L 29.893216752891774 -0.5 L 25 -0.5 Z M 76.78384175289177 0.5 L 81.67705850578355 0.5 L 81.67705850578355 3.5 L 88.67705850578355 0 L 81.67705850578355 -3.5 L 81.67705850578355 -0.5 L 76.78384175289177 -0.5 Z"/><text text-anchor="middle" pointer-events="none" font-size="8px" fill="#000000" x="53.338529252891774" y="3" transform="rotate(180 53.338529252891774 0)" font-family="sans-serif">DIRECTED</text></g><g class="relationship" transform="translate(157.5032658306849 129.0002181472867) rotate(204.28573967879385)"><path class="outline" fill="#A5ABB6" stroke="none" d="M 24.018736134675446,6.953439040707552 L 24.277555179777966,5.987513214418485 A 183.1733146743426 183.1733146743426 0 0 0 43.80412232700284,10.094479007426742 L 43.65190487494317,11.08282603519001 A 184.1733146743426 184.1733146743426 0 0 1 24.018736134675446,6.953439040707552 Z M 95.39870449251603,11.696121367881716 L 95.26995398942394,10.704444349919953 A 183.1733146743426 183.1733146743426 0 0 0 114.88837287208048,7.061419078989079 L 114.18081224224476,4.146053243436626 L 121.8088199266755,5.896338581964443 L 115.83178704519479,10.948573526392352 L 115.12422641535906,8.033207690839898 A 184.1733146743426 184.1733146743426 0 0 1 95.39870449251603,11.696121367881716"/><text text-anchor="middle" pointer-events="none" font-size="8px" fill="#000000" x="69.50958177881283" y="15.71609395570178" transform="rotate(180 69.50958177881283 12.71609395570178)" font-family="sans-serif">PRODUCED</text></g><g class="relationship" transform="translate(157.5032658306849 129.0002181472867) rotate(204.28573967879385)"><path class="outline" fill="#A5ABB6" stroke="none" d="M 24.018736134675446,-6.953439040707552 L 24.277555179777966,-5.987513214418485 A 183.1733146743426 183.1733146743426 0 0 1 51.71719729881221,-11.137248183905939 L 51.60817978002818,-12.131288012382726 A 184.1733146743426 184.1733146743426 0 0 0 24.018736134675446,-6.953439040707552 Z M 87.41981551269255,-12.555722165088099 L 87.3343877297998,-11.559377799966285 A 183.1733146743426 183.1733146743426 0 0 1 114.88837287208048,-7.061419078989079 L 114.18081224224476,-4.146053243436626 L 121.8088199266755,-5.896338581964443 L 115.83178704519479,-10.948573526392352 L 115.12422641535906,-8.033207690839898 A 184.1733146743426 184.1733146743426 0 0 0 87.41981551269255,-12.555722165088099"/><text text-anchor="middle" pointer-events="none" font-size="8px" fill="#000000" x="69.50958177881276" y="-9.71609395570178" transform="rotate(180 69.50958177881276 -12.71609395570178)" font-family="sans-serif">WROTE</text></g><g class="relationship" transform="translate(157.5032658306849 129.0002181472867) rotate(315.6383021567369)"><path class="outline" fill="#A5ABB6" stroke="none" d="M 25 0.5 L 25.84821817610355 0.5 L 25.84821817610355 -0.5 L 25 -0.5 Z M 69.62556192610356 0.5 L 70.4737801022071 0.5 L 70.4737801022071 3.5 L 77.4737801022071 0 L 70.4737801022071 -3.5 L 70.4737801022071 -0.5 L 69.62556192610356 -0.5 Z"/><text text-anchor="middle" pointer-events="none" font-size="8px" fill="#000000" x="47.73689005110355" y="3" font-family="sans-serif">DIRECT…</text></g><g class="relationship" transform="translate(157.5032658306849 129.0002181472867) rotate(509.47050540381304)"><path class="outline" fill="#A5ABB6" stroke="none" d="M 25 0.5 L 25.328253392699928 0.5 L 25.328253392699928 -0.5 L 25 -0.5 Z M 53.10559714269993 0.5 L 53.433850535399856 0.5 L 53.433850535399856 3.5 L 60.433850535399856 0 L 53.433850535399856 -3.5 L 53.433850535399856 -0.5 L 53.10559714269993 -0.5 Z"/><text text-anchor="middle" pointer-events="none" font-size="8px" fill="#000000" x="39.21692526769993" y="3" transform="rotate(180 39.21692526769993 0)" font-family="sans-serif">DIR…</text></g><g class="relationship" transform="translate(157.5032658306849 129.0002181472867) rotate(285.492953139084)"><path class="outline" fill="#A5ABB6" stroke="none" d="M 25 0.5 L 41.848516838757405 0.5 L 41.848516838757405 -0.5 L 25 -0.5 Z M 88.7391418387574 0.5 L 105.58765867751481 0.5 L 105.58765867751481 3.5 L 112.58765867751481 0 L 105.58765867751481 -3.5 L 105.58765867751481 -0.5 L 88.7391418387574 -0.5 Z"/><text text-anchor="middle" pointer-events="none" font-size="8px" fill="#000000" x="65.2938293387574" y="3" font-family="sans-serif">DIRECTED</text></g><g class="relationship" transform="translate(157.5032658306849 129.0002181472867) rotate(180.2637956474656)"><path class="outline" fill="#A5ABB6" stroke="none" d="M 25 0.5 L 30.279178576339014 0.5 L 30.279178576339014 -0.5 L 25 -0.5 Z M 77.169803576339 0.5 L 82.44898215267803 0.5 L 82.44898215267803 3.5 L 89.44898215267803 0 L 82.44898215267803 -3.5 L 82.44898215267803 -0.5 L 77.169803576339 -0.5 Z"/><text text-anchor="middle" pointer-events="none" font-size="8px" fill="#000000" x="53.724491076339014" y="3" transform="rotate(180 53.724491076339014 0)" font-family="sans-serif">DIRECTED</text></g><g class="relationship" transform="translate(105.91050066277955 20.930530351659733) rotate(509.5396473650315)"><path class="outline" fill="#A5ABB6" stroke="none" d="M 24.018736134675446,6.953439040707552 L 24.277555179777966,5.987513214418485 A 80.89303508602197 80.89303508602197 0 0 0 25.526212642719255,6.311441484208942 L 25.2828295058085,7.2813717129715485 A 81.89303508602197 81.89303508602197 0 0 1 24.018736134675446,6.953439040707552 Z M 62.295540851510445,7.942647804544833 L 62.086959895176605,6.9646426999288735 A 80.89303508602197 80.89303508602197 0 0 0 63.346391501617404,6.685524423160235 L 62.673941338034766,3.7618604928327968 L 70.28034903297853,5.603751363188652 L 64.24299171972758,10.583742996930152 L 63.570541556144946,7.660079066602714 A 81.89303508602197 81.89303508602197 0 0 1 62.295540851510445,7.942647804544833"/><text text-anchor="middle" pointer-events="none" font-size="8px" fill="#000000" x="43.76026197108704" y="12.230889295932158" transform="rotate(180 43.76026197108704 9.230889295932158)" font-family="sans-serif">PROD…</text></g><g class="relationship" transform="translate(105.91050066277955 20.930530351659733) rotate(509.5396473650315)"><path class="outline" fill="#A5ABB6" stroke="none" d="M 24.018736134675446,-6.953439040707552 L 24.277555179777966,-5.987513214418485 A 80.89303508602197 80.89303508602197 0 0 1 26.172658097919918,-6.470828114124217 L 25.937266322125893,-7.442728680997462 A 81.89303508602197 81.89303508602197 0 0 0 24.018736134675446,-6.953439040707552 Z M 61.63575786694658,-8.08052467338868 L 61.435233554060744,-7.100835947342659 A 80.89303508602197 80.89303508602197 0 0 1 63.346391501617404,-6.685524423160235 L 62.673941338034766,-3.7618604928327968 L 70.28034903297853,-5.603751363188652 L 64.24299171972758,-10.583742996930152 L 63.570541556144946,-7.660079066602714 A 81.89303508602197 81.89303508602197 0 0 0 61.63575786694658,-8.08052467338868"/><text text-anchor="middle" pointer-events="none" font-size="8px" fill="#000000" x="43.760261971087026" y="-6.230889295932144" transform="rotate(180 43.760261971087026 -9.230889295932144)" font-family="sans-serif">WROTE</text></g><g class="relationship" transform="translate(105.91050066277955 20.930530351659733) rotate(376.26246464700216)"><path class="outline" fill="#A5ABB6" stroke="none" d="M 25 0.5 L 38.08428698398484 0.5 L 38.08428698398484 -0.5 L 25 -0.5 Z M 84.97491198398484 0.5 L 98.05919896796968 0.5 L 98.05919896796968 3.5 L 105.05919896796968 0 L 98.05919896796968 -3.5 L 98.05919896796968 -0.5 L 84.97491198398484 -0.5 Z"/><text text-anchor="middle" pointer-events="none" font-size="8px" fill="#000000" x="61.52959948398484" y="3" font-family="sans-serif">DIRECTED</text></g><g class="relationship" transform="translate(105.91050066277955 20.930530351659733) rotate(458.26308073310497)"><path class="outline" fill="#A5ABB6" stroke="none" d="M 25 0.5 L 49.58342920642747 0.5 L 49.58342920642747 -0.5 L 25 -0.5 Z M 96.47405420642747 0.5 L 121.05748341285494 0.5 L 121.05748341285494 3.5 L 128.05748341285494 0 L 121.05748341285494 -3.5 L 121.05748341285494 -0.5 L 96.47405420642747 -0.5 Z"/><text text-anchor="middle" pointer-events="none" font-size="8px" fill="#000000" x="73.02874170642747" y="3" transform="rotate(180 73.02874170642747 0)" font-family="sans-serif">DIRECTED</text></g><g class="relationship" transform="translate(105.91050066277955 20.930530351659733) rotate(344.48903408768854)"><path class="outline" fill="#A5ABB6" stroke="none" d="M 25 0.5 L 25.785544773753664 0.5 L 25.785544773753664 -0.5 L 25 -0.5 Z M 58.898826023753664 0.5 L 59.68437079750733 0.5 L 59.68437079750733 3.5 L 66.68437079750733 0 L 59.68437079750733 -3.5 L 59.68437079750733 -0.5 L 58.898826023753664 -0.5 Z"/><text text-anchor="middle" pointer-events="none" font-size="8px" fill="#000000" x="42.342185398753664" y="3" font-family="sans-serif">DIRE…</text></g><g class="relationship" transform="translate(105.91050066277955 20.930530351659733) rotate(480.30480218924026)"><path class="outline" fill="#A5ABB6" stroke="none" d="M 25 0.5 L 35.33669861166253 0.5 L 35.33669861166253 -0.5 L 25 -0.5 Z M 82.22732361166253 0.5 L 92.56402222332505 0.5 L 92.56402222332505 3.5 L 99.56402222332505 0 L 92.56402222332505 -3.5 L 92.56402222332505 -0.5 L 82.22732361166253 -0.5 Z"/><text text-anchor="middle" pointer-events="none" font-size="8px" fill="#000000" x="58.78201111166253" y="3" transform="rotate(180 58.78201111166253 0)" font-family="sans-serif">DIRECTED</text></g><g class="relationship" transform="translate(-91.18625583039389 66.771464160647) rotate(361.06042706279806)"><path class="outline" fill="#A5ABB6" stroke="none" d="M 25 0.5 L 30.822241628370293 0.5 L 30.822241628370293 -0.5 L 25 -0.5 Z M 77.71286662837029 0.5 L 83.53510825674059 0.5 L 83.53510825674059 3.5 L 90.53510825674059 0 L 83.53510825674059 -3.5 L 83.53510825674059 -0.5 L 77.71286662837029 -0.5 Z"/><text text-anchor="middle" pointer-events="none" font-size="8px" fill="#000000" x="54.26755412837029" y="3" font-family="sans-serif">DIRECTED</text></g></g><g class="layer nodes"><g class="node" transform="translate(128.2838510407136,76.60053648205388)"><circle class="outline" cx="0" cy="0" r="25" fill="#F79767" stroke="#f36924" stroke-width="2px"/><text text-anchor="middle" pointer-events="none" font-family="sans-serif" dy="1.5625" font-size="25" fill="#FFFFFF"/><text text-anchor="middle" pointer-events="none" font-family="sans-serif" dy="1.5625" font-size="25" fill="#FFFFFF"/><text text-anchor="middle" pointer-events="none" x="0" y="0" font-size="10px" fill="#FFFFFF" font-family="sans-serif"> Hugo</text><text text-anchor="middle" pointer-events="none" x="0" y="10" font-size="10px" fill="#FFFFFF" font-family="sans-serif"> Weaving</text></g><g class="node" transform="translate(230.7658951823983,57.35203080867387)"><circle class="outline" cx="0" cy="0" r="25" fill="#57C7E3" stroke="#23b3d7" stroke-width="2px"/><text text-anchor="middle" pointer-events="none" font-family="sans-serif" dy="1.5625" font-size="25" fill="#2A2C34"/><text text-anchor="middle" pointer-events="none" font-family="sans-serif" dy="1.5625" font-size="25" fill="#2A2C34"/><text text-anchor="middle" pointer-events="none" x="0" y="0" font-size="10px" fill="#2A2C34" font-family="sans-serif"> Cloud</text><text text-anchor="middle" pointer-events="none" x="0" y="10" font-size="10px" fill="#2A2C34" font-family="sans-serif"> Atlas</text></g><g class="node" transform="translate(331.7976023680355,109.45834303361457)"><circle class="outline" cx="0" cy="0" r="25" fill="#F79767" stroke="#f36924" stroke-width="2px"/><text text-anchor="middle" pointer-events="none" font-family="sans-serif" dy="1.5625" font-size="25" fill="#FFFFFF"/><text text-anchor="middle" pointer-events="none" font-family="sans-serif" dy="1.5625" font-size="25" fill="#FFFFFF"/><text text-anchor="middle" pointer-events="none" x="0" y="0" font-size="10px" fill="#FFFFFF" font-family="sans-serif"> Tom</text><text text-anchor="middle" pointer-events="none" x="0" y="10" font-size="10px" fill="#FFFFFF" font-family="sans-serif"> Tykwer</text></g><g class="node" transform="translate(157.5032658306849,129.0002181472867)"><circle class="outline" cx="0" cy="0" r="25" fill="#F79767" stroke="#f36924" stroke-width="2px"/><text text-anchor="middle" pointer-events="none" font-family="sans-serif" dy="1.5625" font-size="25" fill="#FFFFFF"/><text text-anchor="middle" pointer-events="none" font-family="sans-serif" dy="1.5625" font-size="25" fill="#FFFFFF"/><text text-anchor="middle" pointer-events="none" x="0" y="0" font-size="10px" fill="#FFFFFF" font-family="sans-serif"> Lana</text><text text-anchor="middle" pointer-events="none" x="0" y="10" font-size="10px" fill="#FFFFFF" font-family="sans-serif"> Wacho…</text></g><g class="node" transform="translate(105.91050066277955,20.930530351659733)"><circle class="outline" cx="0" cy="0" r="25" fill="#F79767" stroke="#f36924" stroke-width="2px"/><text text-anchor="middle" pointer-events="none" font-family="sans-serif" dy="1.5625" font-size="25" fill="#FFFFFF"/><text text-anchor="middle" pointer-events="none" font-family="sans-serif" dy="1.5625" font-size="25" fill="#FFFFFF"/><text text-anchor="middle" pointer-events="none" x="0" y="0" font-size="10px" fill="#FFFFFF" font-family="sans-serif"> Lilly</text><text text-anchor="middle" pointer-events="none" x="0" y="10" font-size="10px" fill="#FFFFFF" font-family="sans-serif"> Wacho…</text></g><g class="node" transform="translate(24.32906506323772,68.90965936644102)"><circle class="outline" cx="0" cy="0" r="25" fill="#57C7E3" stroke="#23b3d7" stroke-width="2px"/><text text-anchor="middle" pointer-events="none" font-family="sans-serif" dy="1.5625" font-size="25" fill="#2A2C34"/><text text-anchor="middle" pointer-events="none" font-family="sans-serif" dy="1.5625" font-size="25" fill="#2A2C34"/><text text-anchor="middle" pointer-events="none" x="0" y="0" font-size="10px" fill="#2A2C34" font-family="sans-serif"> V for</text><text text-anchor="middle" pointer-events="none" x="0" y="10" font-size="10px" fill="#2A2C34" font-family="sans-serif"> Vendetta</text></g><g class="node" transform="translate(-91.18625583039389,66.771464160647)"><circle class="outline" cx="0" cy="0" r="25" fill="#F79767" stroke="#f36924" stroke-width="2px"/><text text-anchor="middle" pointer-events="none" font-family="sans-serif" dy="1.5625" font-size="25" fill="#FFFFFF"/><text text-anchor="middle" pointer-events="none" font-family="sans-serif" dy="1.5625" font-size="25" fill="#FFFFFF"/><text text-anchor="middle" pointer-events="none" x="0" y="0" font-size="10px" fill="#FFFFFF" font-family="sans-serif"> James</text><text text-anchor="middle" pointer-events="none" x="0" y="10" font-size="10px" fill="#FFFFFF" font-family="sans-serif"> Marshall</text></g><g class="node" transform="translate(83.91329993160184,172.3990630198963)"><circle class="outline" cx="0" cy="0" r="25" fill="#57C7E3" stroke="#23b3d7" stroke-width="2px"/><text text-anchor="middle" pointer-events="none" font-family="sans-serif" dy="1.5625" font-size="25" fill="#2A2C34"/><text text-anchor="middle" pointer-events="none" font-family="sans-serif" dy="1.5625" font-size="25" fill="#2A2C34"/><text text-anchor="middle" pointer-events="none" font-family="sans-serif" dy="1.5625" font-size="25" fill="#2A2C34"/><text text-anchor="middle" pointer-events="none" x="0" y="-5" font-size="10px" fill="#2A2C34" font-family="sans-serif"> The</text><text text-anchor="middle" pointer-events="none" x="0" y="5" font-size="10px" fill="#2A2C34" font-family="sans-serif"> Matrix</text><text text-anchor="middle" pointer-events="none" x="0" y="15" font-size="10px" fill="#2A2C34" font-family="sans-serif"> Revol…</text></g><g class="node" transform="translate(194.25566143930672,-3.587960953972826)"><circle class="outline" cx="0" cy="0" r="25" fill="#57C7E3" stroke="#23b3d7" stroke-width="2px"/><text text-anchor="middle" pointer-events="none" font-family="sans-serif" dy="1.5625" font-size="25" fill="#2A2C34"/><text text-anchor="middle" pointer-events="none" font-family="sans-serif" dy="1.5625" font-size="25" fill="#2A2C34"/><text text-anchor="middle" pointer-events="none" font-family="sans-serif" dy="1.5625" font-size="25" fill="#2A2C34"/><text text-anchor="middle" pointer-events="none" x="0" y="-5" font-size="10px" fill="#2A2C34" font-family="sans-serif"> The</text><text text-anchor="middle" pointer-events="none" x="0" y="5" font-size="10px" fill="#2A2C34" font-family="sans-serif"> Matrix</text><text text-anchor="middle" pointer-events="none" x="0" y="15" font-size="10px" fill="#2A2C34" font-family="sans-serif"> Reloa…</text></g><g class="node" transform="translate(43.055496706935415,128.47328515254736)"><circle class="outline" cx="0" cy="0" r="25" fill="#57C7E3" stroke="#23b3d7" stroke-width="2px"/><text text-anchor="middle" pointer-events="none" font-family="sans-serif" dy="1.5625" font-size="25" fill="#2A2C34"/><text text-anchor="middle" pointer-events="none" font-family="sans-serif" dy="1.5625" font-size="25" fill="#2A2C34"/><text text-anchor="middle" pointer-events="none" x="0" y="0" font-size="10px" fill="#2A2C34" font-family="sans-serif"> The</text><text text-anchor="middle" pointer-events="none" x="0" y="10" font-size="10px" fill="#2A2C34" font-family="sans-serif"> Matrix</text></g></g></svg>