<svg xmlns="http://www.w3.org/2000/svg" width="187.91082763671875" height="216.53005981445312" viewBox="-4.151123046875 8.865242004394531 187.91082763671875 216.53005981445312"><title>Neo4j Graph Visualization</title><desc>Created using Neo4j (http://www.neo4j.com/)</desc><g class="layer relationships"><g class="relationship" transform="translate(24.84887740258916 90.73298028574203) rotate(349.12163952312255)"><path class="outline" fill="#A5ABB6" stroke="none" d="M 25 0.5 L 39.533827075532045 0.5 L 39.533827075532045 -0.5 L 25 -0.5 Z M 85.09632707553205 0.5 L 99.63015415106409 0.5 L 99.63015415106409 3.5 L 106.63015415106409 0 L 99.63015415106409 -3.5 L 99.63015415106409 -0.5 L 85.09632707553205 -0.5 Z"/><text text-anchor="middle" pointer-events="none" font-size="8px" fill="#000000" x="62.315077075532045" y="3" font-family="sans-serif">ACTED_IN</text></g><g class="relationship" transform="translate(24.84887740258916 90.73298028574203) rotate(325.2929041198321)"><path class="outline" fill="#A5ABB6" stroke="none" d="M 25 0.5 L 25.257629496272493 0.5 L 25.257629496272493 -0.5 L 25 -0.5 Z M 60.59356699627249 0.5 L 60.851196492544986 0.5 L 60.851196492544986 3.5 L 67.85119649254499 0 L 60.851196492544986 -3.5 L 60.851196492544986 -0.5 L 60.59356699627249 -0.5 Z"/><text text-anchor="middle" pointer-events="none" font-size="8px" fill="#000000" x="42.92559824627249" y="3" font-family="sans-serif">ACTE…</text></g><g class="relationship" transform="translate(24.84887740258916 90.73298028574203) rotate(436.58521994384125)"><path class="outline" fill="#A5ABB6" stroke="none" d="M 25 0.5 L 28.03178889019577 0.5 L 28.03178889019577 -0.5 L 25 -0.5 Z M 73.59428889019577 0.5 L 76.62607778039154 0.5 L 76.62607778039154 3.5 L 83.62607778039154 0 L 76.62607778039154 -3.5 L 76.62607778039154 -0.5 L 73.59428889019577 -0.5 Z"/><text text-anchor="middle" pointer-events="none" font-size="8px" fill="#000000" x="50.81303889019577" y="3" font-family="sans-serif">ACTED_IN</text></g><g class="relationship" transform="translate(154.75970173805905 159.19505578700662) rotate(269.60327822229766)"><path class="outline" fill="#A5ABB6" stroke="none" d="M 25 0.5 L 25.48510896728647 0.5 L 25.48510896728647 -0.5 L 25 -0.5 Z M 60.82104646728647 0.5 L 61.30615543457294 0.5 L 61.30615543457294 3.5 L 68.30615543457294 0 L 61.30615543457294 -3.5 L 61.30615543457294 -0.5 L 60.82104646728647 -0.5 Z"/><text text-anchor="middle" pointer-events="none" font-size="8px" fill="#000000" x="43.15307771728647" y="3" transform="rotate(180 43.15307771728647 0)" font-family="sans-serif">ACTE…</text></g><g class="relationship" transform="translate(154.75970173805905 159.19505578700662) rotate(246.1733250120417)"><path class="outline" fill="#A5ABB6" stroke="none" d="M 25 0.5 L 40.035742085215105 0.5 L 40.035742085215105 -0.5 L 25 -0.5 Z M 85.5982420852151 0.5 L 100.63398417043021 0.5 L 100.63398417043021 3.5 L 107.63398417043021 0 L 100.63398417043021 -3.5 L 100.63398417043021 -0.5 L 85.5982420852151 -0.5 Z"/><text text-anchor="middle" pointer-events="none" font-size="8px" fill="#000000" x="62.816992085215105" y="3" transform="rotate(180 62.816992085215105 0)" font-family="sans-serif">ACTED_IN</text></g><g class="relationship" transform="translate(154.75970173805905 159.19505578700662) rotate(520.4413810081134)"><path class="outline" fill="#A5ABB6" stroke="none" d="M 25 0.5 L 29.279483608495383 0.5 L 29.279483608495383 -0.5 L 25 -0.5 Z M 74.84198360849538 0.5 L 79.12146721699077 0.5 L 79.12146721699077 3.5 L 86.12146721699077 0 L 79.12146721699077 -3.5 L 79.12146721699077 -0.5 L 74.84198360849538 -0.5 Z"/><text text-anchor="middle" pointer-events="none" font-size="8px" fill="#000000" x="52.06073360849538" y="3" transform="rotate(180 52.06073360849538 0)" font-family="sans-serif">ACTED_IN</text></g></g><g class="layer nodes"><g class="node" transform="translate(24.84887740258916,90.73298028574203)"><circle class="outline" cx="0" cy="0" r="25" fill="#F79767" stroke="#f36924" stroke-width="2px"/><text text-anchor="middle" pointer-events="none" font-family="sans-serif" dy="1.5625" font-size="25" fill="#FFFFFF"/><text text-anchor="middle" pointer-events="none" font-family="sans-serif" dy="1.5625" font-size="25" fill="#FFFFFF"/><text text-anchor="middle" pointer-events="none" x="0" y="0" font-size="10px" fill="#FFFFFF" font-family="sans-serif"> Hugo</text><text text-anchor="middle" pointer-events="none" x="0" y="10" font-size="10px" fill="#FFFFFF" font-family="sans-serif"> Weaving</text></g><g class="node" transform="translate(154.75970173805905,159.19505578700662)"><circle class="outline" cx="0" cy="0" r="25" fill="#F79767" stroke="#f36924" stroke-width="2px"/><text text-anchor="middle" pointer-events="none" font-family="sans-serif" dy="1.5625" font-size="25" fill="#FFFFFF"/><text text-anchor="middle" pointer-events="none" font-family="sans-serif" dy="1.5625" font-size="25" fill="#FFFFFF"/><text text-anchor="middle" pointer-events="none" x="0" y="0" font-size="10px" fill="#FFFFFF" font-family="sans-serif"> Keanu</text><text text-anchor="middle" pointer-events="none" x="0" y="10" font-size="10px" fill="#FFFFFF" font-family="sans-serif"> Reeves</text></g><g class="node" transform="translate(154.11364563431547,65.89113704030284)"><circle class="outline" cx="0" cy="0" r="25" fill="#57C7E3" stroke="#23b3d7" stroke-width="2px"/><text text-anchor="middle" pointer-events="none" font-family="sans-serif" dy="1.5625" font-size="25" fill="#2A2C34"/><text text-anchor="middle" pointer-events="none" font-family="sans-serif" dy="1.5625" font-size="25" fill="#2A2C34"/><text text-anchor="middle" pointer-events="none" font-family="sans-serif" dy="1.5625" font-size="25" fill="#2A2C34"/><text text-anchor="middle" pointer-events="none" x="0" y="-5" font-size="10px" fill="#2A2C34" font-family="sans-serif"> The</text><text text-anchor="middle" pointer-events="none" x="0" y="5" font-size="10px" fill="#2A2C34" font-family="sans-serif"> Matrix</text><text text-anchor="middle" pointer-events="none" x="0" y="15" font-size="10px" fill="#2A2C34" font-family="sans-serif"> Revol…</text></g><g class="node" transform="translate(101.17938840398583,37.86524172655209)"><circle class="outline" cx="0" cy="0" r="25" fill="#57C7E3" stroke="#23b3d7" stroke-width="2px"/><text text-anchor="middle" pointer-events="none" font-family="sans-serif" dy="1.5625" font-size="25" fill="#2A2C34"/><text text-anchor="middle" pointer-events="none" font-family="sans-serif" dy="1.5625" font-size="25" fill="#2A2C34"/><text text-anchor="middle" pointer-events="none" font-family="sans-serif" dy="1.5625" font-size="25" fill="#2A2C34"/><text text-anchor="middle" pointer-events="none" x="0" y="-5" font-size="10px" fill="#2A2C34" font-family="sans-serif"> The</text><text text-anchor="middle" pointer-events="none" x="0" y="5" font-size="10px" fill="#2A2C34" font-family="sans-serif"> Matrix</text><text text-anchor="middle" pointer-events="none" x="0" y="15" font-size="10px" fill="#2A2C34" font-family="sans-serif"> Reloa…</text></g><g class="node" transform="translate(50.05000075403815,196.39531111265842)"><circle class="outline" cx="0" cy="0" r="25" fill="#57C7E3" stroke="#23b3d7" stroke-width="2px"/><text text-anchor="middle" pointer-events="none" font-family="sans-serif" dy="1.5625" font-size="25" fill="#2A2C34"/><text text-anchor="middle" pointer-events="none" font-family="sans-serif" dy="1.5625" font-size="25" fill="#2A2C34"/><text text-anchor="middle" pointer-events="none" x="0" y="0" font-size="10px" fill="#2A2C34" font-family="sans-serif"> The</text><text text-anchor="middle" pointer-events="none" x="0" y="10" font-size="10px" fill="#2A2C34" font-family="sans-serif"> Matrix</text></g></g></svg>