<svg xmlns="http://www.w3.org/2000/svg" width="478.89422607421875" height="482.63702392578125" viewBox="-181.6712646484375 -139.90249633789062 478.89422607421875 482.63702392578125"><title>Neo4j Graph Visualization</title><desc>Created using Neo4j (http://www.neo4j.com/)</desc><g class="layer relationships"><g class="relationship" transform="translate(46.95987693524082 93.11928488727901) rotate(406.2258638791279)"><path class="outline" fill="#A5ABB6" stroke="none" d="M 25 0.5 L 42.281635751389075 0.5 L 42.281635751389075 -0.5 L 25 -0.5 Z M 87.84413575138908 0.5 L 105.12577150277815 0.5 L 105.12577150277815 3.5 L 112.12577150277815 0 L 105.12577150277815 -3.5 L 105.12577150277815 -0.5 L 87.84413575138908 -0.5 Z"/><text text-anchor="middle" pointer-events="none" font-size="8px" fill="#000000" x="65.06288575138908" y="3" font-family="sans-serif">ACTED_IN</text></g><g class="relationship" transform="translate(46.95987693524082 93.11928488727901) rotate(320.09684697582026)"><path class="outline" fill="#A5ABB6" stroke="none" d="M 25 0.5 L 41.117356094693875 0.5 L 41.117356094693875 -0.5 L 25 -0.5 Z M 86.67985609469387 0.5 L 102.79721218938775 0.5 L 102.79721218938775 3.5 L 109.79721218938775 0 L 102.79721218938775 -3.5 L 102.79721218938775 -0.5 L 86.67985609469387 -0.5 Z"/><text text-anchor="middle" pointer-events="none" font-size="8px" fill="#000000" x="63.898606094693875" y="3" font-family="sans-serif">ACTED_IN</text></g><g class="relationship" transform="translate(46.95987693524082 93.11928488727901) rotate(229.70635882913348)"><path class="outline" fill="#A5ABB6" stroke="none" d="M 25 0.5 L 47.13837019393813 0.5 L 47.13837019393813 -0.5 L 25 -0.5 Z M 92.70087019393813 0.5 L 114.83924038787626 0.5 L 114.83924038787626 3.5 L 121.83924038787626 0 L 114.83924038787626 -3.5 L 114.83924038787626 -0.5 L 92.70087019393813 -0.5 Z"/><text text-anchor="middle" pointer-events="none" font-size="8px" fill="#000000" x="69.91962019393813" y="3" transform="rotate(180 69.91962019393813 0)" font-family="sans-serif">ACTED_IN</text></g><g class="relationship" transform="translate(46.95987693524082 93.11928488727901) rotate(517.9179832860564)"><path class="outline" fill="#A5ABB6" stroke="none" d="M 25 0.5 L 49.293695822233744 0.5 L 49.293695822233744 -0.5 L 25 -0.5 Z M 94.85619582223374 0.5 L 119.14989164446749 0.5 L 119.14989164446749 3.5 L 126.14989164446749 0 L 119.14989164446749 -3.5 L 119.14989164446749 -0.5 L 94.85619582223374 -0.5 Z"/><text text-anchor="middle" pointer-events="none" font-size="8px" fill="#000000" x="72.07494582223374" y="3" transform="rotate(180 72.07494582223374 0)" font-family="sans-serif">ACTED_IN</text></g><g class="relationship" transform="translate(46.95987693524082 93.11928488727901) rotate(497.2242855311567)"><path class="outline" fill="#A5ABB6" stroke="none" d="M 25 0.5 L 30.975759849557456 0.5 L 30.975759849557456 -0.5 L 25 -0.5 Z M 76.53825984955745 0.5 L 82.51401969911491 0.5 L 82.51401969911491 3.5 L 89.51401969911491 0 L 82.51401969911491 -3.5 L 82.51401969911491 -0.5 L 76.53825984955745 -0.5 Z"/><text text-anchor="middle" pointer-events="none" font-size="8px" fill="#000000" x="53.757009849557456" y="3" transform="rotate(180 53.757009849557456 0)" font-family="sans-serif">ACTED_IN</text></g><g class="relationship" transform="translate(135.7551046066262 313.73451366143615) rotate(272.8580478385718)"><path class="outline" fill="#A5ABB6" stroke="none" d="M 25 0.5 L 34.594705109850054 0.5 L 34.594705109850054 -0.5 L 25 -0.5 Z M 80.15720510985005 0.5 L 89.75191021970011 0.5 L 89.75191021970011 3.5 L 96.75191021970011 0 L 89.75191021970011 -3.5 L 89.75191021970011 -0.5 L 80.15720510985005 -0.5 Z"/><text text-anchor="middle" pointer-events="none" font-size="8px" fill="#000000" x="57.375955109850054" y="3" font-family="sans-serif">ACTED_IN</text></g><g class="relationship" transform="translate(264.934310243242 201.71455055405298) rotate(184.44988391471855)"><path class="outline" fill="#A5ABB6" stroke="none" d="M 25 0.5 L 35.459087907657555 0.5 L 35.459087907657555 -0.5 L 25 -0.5 Z M 81.02158790765756 0.5 L 91.48067581531511 0.5 L 91.48067581531511 3.5 L 98.48067581531511 0 L 91.48067581531511 -3.5 L 91.48067581531511 -0.5 L 81.02158790765756 -0.5 Z"/><text text-anchor="middle" pointer-events="none" font-size="8px" fill="#000000" x="58.240337907657555" y="3" transform="rotate(180 58.240337907657555 0)" font-family="sans-serif">ACTED_IN</text></g><g class="relationship" transform="translate(226.70920837780793 283.77404644881994) rotate(227.19199644815205)"><path class="outline" fill="#A5ABB6" stroke="none" d="M 25 0.5 L 36.17488043217587 0.5 L 36.17488043217587 -0.5 L 25 -0.5 Z M 81.73738043217587 0.5 L 92.91226086435174 0.5 L 92.91226086435174 3.5 L 99.91226086435174 0 L 92.91226086435174 -3.5 L 92.91226086435174 -0.5 L 81.73738043217587 -0.5 Z"/><text text-anchor="middle" pointer-events="none" font-size="8px" fill="#000000" x="58.95613043217587" y="3" transform="rotate(180 58.95613043217587 0)" font-family="sans-serif">ACTED_IN</text></g><g class="relationship" transform="translate(265.0132576981603 47.889703708452814) rotate(199.78516982284668)"><path class="outline" fill="#A5ABB6" stroke="none" d="M 25 0.5 L 34.63812498724116 0.5 L 34.63812498724116 -0.5 L 25 -0.5 Z M 80.20062498724116 0.5 L 89.83874997448233 0.5 L 89.83874997448233 3.5 L 96.83874997448233 0 L 89.83874997448233 -3.5 L 89.83874997448233 -0.5 L 80.20062498724116 -0.5 Z"/><text text-anchor="middle" pointer-events="none" font-size="8px" fill="#000000" x="57.41937498724116" y="3" transform="rotate(180 57.41937498724116 0)" font-family="sans-serif">ACTED_IN</text></g><g class="relationship" transform="translate(268.22299186687883 -36.57702874405247) rotate(519.8589488242188)"><path class="outline" fill="#A5ABB6" stroke="none" d="M 25 0.5 L 36.48512773495661 0.5 L 36.48512773495661 -0.5 L 25 -0.5 Z M 82.04762773495662 0.5 L 93.53275546991323 0.5 L 93.53275546991323 3.5 L 100.53275546991323 0 L 93.53275546991323 -3.5 L 93.53275546991323 -0.5 L 82.04762773495662 -0.5 Z"/><text text-anchor="middle" pointer-events="none" font-size="8px" fill="#000000" x="59.26637773495661" y="3" transform="rotate(180 59.26637773495661 0)" font-family="sans-serif">ACTED_IN</text></g><g class="relationship" transform="translate(117.19656925204937 -110.90249631166371) rotate(434.24204838351073)"><path class="outline" fill="#A5ABB6" stroke="none" d="M 25 0.5 L 34.789159442602944 0.5 L 34.789159442602944 -0.5 L 25 -0.5 Z M 80.35165944260294 0.5 L 90.14081888520589 0.5 L 90.14081888520589 3.5 L 97.14081888520589 0 L 90.14081888520589 -3.5 L 90.14081888520589 -0.5 L 80.35165944260294 -0.5 Z"/><text text-anchor="middle" pointer-events="none" font-size="8px" fill="#000000" x="57.570409442602944" y="3" font-family="sans-serif">ACTED_IN</text></g><g class="relationship" transform="translate(209.31312373881983 -102.09907709931421) rotate(478.4598839518139)"><path class="outline" fill="#A5ABB6" stroke="none" d="M 25 0.5 L 35.56651635015271 0.5 L 35.56651635015271 -0.5 L 25 -0.5 Z M 81.12901635015271 0.5 L 91.69553270030542 0.5 L 91.69553270030542 3.5 L 98.69553270030542 0 L 91.69553270030542 -3.5 L 91.69553270030542 -0.5 L 81.12901635015271 -0.5 Z"/><text text-anchor="middle" pointer-events="none" font-size="8px" fill="#000000" x="58.34776635015271" y="3" transform="rotate(180 58.34776635015271 0)" font-family="sans-serif">ACTED_IN</text></g><g class="relationship" transform="translate(-97.92699133654492 55.49812766832861) rotate(303.87056311291275)"><path class="outline" fill="#A5ABB6" stroke="none" d="M 25 0.5 L 26.29051827821739 0.5 L 26.29051827821739 -0.5 L 25 -0.5 Z M 56.29051827821739 0.5 L 57.58103655643478 0.5 L 57.58103655643478 3.5 L 64.58103655643478 0 L 57.58103655643478 -3.5 L 57.58103655643478 -0.5 L 56.29051827821739 -0.5 Z"/><text text-anchor="middle" pointer-events="none" font-size="8px" fill="#000000" x="41.29051827821739" y="3" font-family="sans-serif">ACT…</text></g><g class="relationship" transform="translate(-97.92699133654492 55.49812766832861) rotate(447.0757805196337)"><path class="outline" fill="#A5ABB6" stroke="none" d="M 25 0.5 L 26.115327458194706 0.5 L 26.115327458194706 -0.5 L 25 -0.5 Z M 61.451264958194706 0.5 L 62.56659241638941 0.5 L 62.56659241638941 3.5 L 69.56659241638941 0 L 62.56659241638941 -3.5 L 62.56659241638941 -0.5 L 61.451264958194706 -0.5 Z"/><text text-anchor="middle" pointer-events="none" font-size="8px" fill="#000000" x="43.783296208194706" y="3" font-family="sans-serif">ACTE…</text></g><g class="relationship" transform="translate(-97.92699133654492 55.49812766832861) rotate(422.20282853993587)"><path class="outline" fill="#A5ABB6" stroke="none" d="M 25 0.5 L 38.940641047030624 0.5 L 38.940641047030624 -0.5 L 25 -0.5 Z M 84.50314104703062 0.5 L 98.44378209406125 0.5 L 98.44378209406125 3.5 L 105.44378209406125 0 L 98.44378209406125 -3.5 L 98.44378209406125 -0.5 L 84.50314104703062 -0.5 Z"/><text text-anchor="middle" pointer-events="none" font-size="8px" fill="#000000" x="61.721891047030624" y="3" font-family="sans-serif">ACTED_IN</text></g><g class="relationship" transform="translate(-23.15967040342617 70.71046890951966) rotate(254.50222133449563)"><path class="outline" fill="#A5ABB6" stroke="none" d="M 25 0.5 L 25.317900658262836 0.5 L 25.317900658262836 -0.5 L 25 -0.5 Z M 60.653838158262836 0.5 L 60.97173881652567 0.5 L 60.97173881652567 3.5 L 67.97173881652567 0 L 60.97173881652567 -3.5 L 60.97173881652567 -0.5 L 60.653838158262836 -0.5 Z"/><text text-anchor="middle" pointer-events="none" font-size="8px" fill="#000000" x="42.985869408262836" y="3" transform="rotate(180 42.985869408262836 0)" font-family="sans-serif">ACTE…</text></g><g class="relationship" transform="translate(-23.15967040342617 70.71046890951966) rotate(491.43715755888)"><path class="outline" fill="#A5ABB6" stroke="none" d="M 25 0.5 L 26.561895766087595 0.5 L 26.561895766087595 -0.5 L 25 -0.5 Z M 72.12439576608759 0.5 L 73.68629153217519 0.5 L 73.68629153217519 3.5 L 80.68629153217519 0 L 73.68629153217519 -3.5 L 73.68629153217519 -0.5 L 72.12439576608759 -0.5 Z"/><text text-anchor="middle" pointer-events="none" font-size="8px" fill="#000000" x="49.343145766087595" y="3" transform="rotate(180 49.343145766087595 0)" font-family="sans-serif">ACTED_IN</text></g><g class="relationship" transform="translate(-23.15967040342617 70.71046890951966) rotate(457.91954317478337)"><path class="outline" fill="#A5ABB6" stroke="none" d="M 25 0.5 L 26.51506073172063 0.5 L 26.51506073172063 -0.5 L 25 -0.5 Z M 67.62834198172064 0.5 L 69.14340271344126 0.5 L 69.14340271344126 3.5 L 76.14340271344126 0 L 69.14340271344126 -3.5 L 69.14340271344126 -0.5 L 67.62834198172064 -0.5 Z"/><text text-anchor="middle" pointer-events="none" font-size="8px" fill="#000000" x="47.07170135672063" y="3" transform="rotate(180 47.07170135672063 0)" font-family="sans-serif">ACTED…</text></g><g class="relationship" transform="translate(-152.6712633009451 79.58720973248528) rotate(316.74857228024473)"><path class="outline" fill="#A5ABB6" stroke="none" d="M 25 0.5 L 45.572178926948894 0.5 L 45.572178926948894 -0.5 L 25 -0.5 Z M 91.1346789269489 0.5 L 111.70685785389779 0.5 L 111.70685785389779 3.5 L 118.70685785389779 0 L 111.70685785389779 -3.5 L 111.70685785389779 -0.5 L 91.1346789269489 -0.5 Z"/><text text-anchor="middle" pointer-events="none" font-size="8px" fill="#000000" x="68.3534289269489" y="3" font-family="sans-serif">ACTED_IN</text></g><g class="relationship" transform="translate(-152.6712633009451 79.58720973248528) rotate(409.7456249107412)"><path class="outline" fill="#A5ABB6" stroke="none" d="M 25 0.5 L 27.592720563909687 0.5 L 27.592720563909687 -0.5 L 25 -0.5 Z M 57.59272056390969 0.5 L 60.185441127819374 0.5 L 60.185441127819374 3.5 L 67.18544112781937 0 L 60.185441127819374 -3.5 L 60.185441127819374 -0.5 L 57.59272056390969 -0.5 Z"/><text text-anchor="middle" pointer-events="none" font-size="8px" fill="#000000" x="42.59272056390969" y="3" font-family="sans-serif">ACT…</text></g><g class="relationship" transform="translate(-152.6712633009451 79.58720973248528) rotate(398.3078555631084)"><path class="outline" fill="#A5ABB6" stroke="none" d="M 25 0.5 L 47.36286954027666 0.5 L 47.36286954027666 -0.5 L 25 -0.5 Z M 92.92536954027666 0.5 L 115.28823908055332 0.5 L 115.28823908055332 3.5 L 122.28823908055332 0 L 115.28823908055332 -3.5 L 115.28823908055332 -0.5 L 92.92536954027666 -0.5 Z"/><text text-anchor="middle" pointer-events="none" font-size="8px" fill="#000000" x="70.14411954027666" y="3" font-family="sans-serif">ACTED_IN</text></g><g class="relationship" transform="translate(-67.55071171078144 289.86150125201544) rotate(284.35859390842927)"><path class="outline" fill="#A5ABB6" stroke="none" d="M 25 0.5 L 35.12299844326734 0.5 L 35.12299844326734 -0.5 L 25 -0.5 Z M 80.68549844326733 0.5 L 90.80849688653468 0.5 L 90.80849688653468 3.5 L 97.80849688653468 0 L 90.80849688653468 -3.5 L 90.80849688653468 -0.5 L 80.68549844326733 -0.5 Z"/><text text-anchor="middle" pointer-events="none" font-size="8px" fill="#000000" x="57.90424844326734" y="3" font-family="sans-serif">ACTED_IN</text></g></g><g class="layer nodes"><g class="node" transform="translate(46.95987693524082,93.11928488727901)"><circle class="outline" cx="0" cy="0" r="25" fill="#F79767" stroke="#f36924" stroke-width="2px"/><text text-anchor="middle" pointer-events="none" font-family="sans-serif" dy="1.5625" font-size="25" fill="#FFFFFF"/><text text-anchor="middle" pointer-events="none" font-family="sans-serif" dy="1.5625" font-size="25" fill="#FFFFFF"/><text text-anchor="middle" pointer-events="none" x="0" y="0" font-size="10px" fill="#FFFFFF" font-family="sans-serif"> Hugo</text><text text-anchor="middle" pointer-events="none" x="0" y="10" font-size="10px" fill="#FFFFFF" font-family="sans-serif"> Weaving</text></g><g class="node" transform="translate(141.82585707106577,192.13404652967955)"><circle class="outline" cx="0" cy="0" r="25" fill="#57C7E3" stroke="#23b3d7" stroke-width="2px"/><text text-anchor="middle" pointer-events="none" font-family="sans-serif" dy="1.5625" font-size="25" fill="#2A2C34"/><text text-anchor="middle" pointer-events="none" font-family="sans-serif" dy="1.5625" font-size="25" fill="#2A2C34"/><text text-anchor="middle" pointer-events="none" x="0" y="0" font-size="10px" fill="#2A2C34" font-family="sans-serif"> Cloud</text><text text-anchor="middle" pointer-events="none" x="0" y="10" font-size="10px" fill="#2A2C34" font-family="sans-serif"> Atlas</text></g><g class="node" transform="translate(135.7551046066262,313.73451366143615)"><circle class="outline" cx="0" cy="0" r="25" fill="#F79767" stroke="#f36924" stroke-width="2px"/><text text-anchor="middle" pointer-events="none" font-family="sans-serif" dy="1.5625" font-size="25" fill="#FFFFFF"/><text text-anchor="middle" pointer-events="none" font-family="sans-serif" dy="1.5625" font-size="25" fill="#FFFFFF"/><text text-anchor="middle" pointer-events="none" x="0" y="0" font-size="10px" fill="#FFFFFF" font-family="sans-serif"> Tom</text><text text-anchor="middle" pointer-events="none" x="0" y="10" font-size="10px" fill="#FFFFFF" font-family="sans-serif"> Hanks</text></g><g class="node" transform="translate(264.934310243242,201.71455055405298)"><circle class="outline" cx="0" cy="0" r="25" fill="#F79767" stroke="#f36924" stroke-width="2px"/><text text-anchor="middle" pointer-events="none" font-family="sans-serif" dy="1.5625" font-size="25" fill="#FFFFFF"/><text text-anchor="middle" pointer-events="none" font-family="sans-serif" dy="1.5625" font-size="25" fill="#FFFFFF"/><text text-anchor="middle" pointer-events="none" x="0" y="0" font-size="10px" fill="#FFFFFF" font-family="sans-serif"> Jim</text><text text-anchor="middle" pointer-events="none" x="0" y="10" font-size="10px" fill="#FFFFFF" font-family="sans-serif"> Broadb…</text></g><g class="node" transform="translate(226.70920837780793,283.77404644881994)"><circle class="outline" cx="0" cy="0" r="25" fill="#F79767" stroke="#f36924" stroke-width="2px"/><text text-anchor="middle" pointer-events="none" font-family="sans-serif" dy="1.5625" font-size="25" fill="#FFFFFF"/><text text-anchor="middle" pointer-events="none" font-family="sans-serif" dy="1.5625" font-size="25" fill="#FFFFFF"/><text text-anchor="middle" pointer-events="none" x="0" y="0" font-size="10px" fill="#FFFFFF" font-family="sans-serif"> Halle</text><text text-anchor="middle" pointer-events="none" x="0" y="10" font-size="10px" fill="#FFFFFF" font-family="sans-serif"> Berry</text></g><g class="node" transform="translate(150.3668422725348,6.647972108054308)"><circle class="outline" cx="0" cy="0" r="25" fill="#57C7E3" stroke="#23b3d7" stroke-width="2px"/><text text-anchor="middle" pointer-events="none" font-family="sans-serif" dy="1.5625" font-size="25" fill="#2A2C34"/><text text-anchor="middle" pointer-events="none" font-family="sans-serif" dy="1.5625" font-size="25" fill="#2A2C34"/><text text-anchor="middle" pointer-events="none" x="0" y="0" font-size="10px" fill="#2A2C34" font-family="sans-serif"> V for</text><text text-anchor="middle" pointer-events="none" x="0" y="10" font-size="10px" fill="#2A2C34" font-family="sans-serif"> Vendetta</text></g><g class="node" transform="translate(265.0132576981603,47.889703708452814)"><circle class="outline" cx="0" cy="0" r="25" fill="#F79767" stroke="#f36924" stroke-width="2px"/><text text-anchor="middle" pointer-events="none" font-family="sans-serif" dy="1.5625" font-size="25" fill="#FFFFFF"/><text text-anchor="middle" pointer-events="none" x="0" y="5" font-size="10px" fill="#FFFFFF" font-family="sans-serif"> John Hurt</text></g><g class="node" transform="translate(268.22299186687883,-36.57702874405247)"><circle class="outline" cx="0" cy="0" r="25" fill="#F79767" stroke="#f36924" stroke-width="2px"/><text text-anchor="middle" pointer-events="none" font-family="sans-serif" dy="1.5625" font-size="25" fill="#FFFFFF"/><text text-anchor="middle" pointer-events="none" font-family="sans-serif" dy="1.5625" font-size="25" fill="#FFFFFF"/><text text-anchor="middle" pointer-events="none" x="0" y="0" font-size="10px" fill="#FFFFFF" font-family="sans-serif"> Stephen</text><text text-anchor="middle" pointer-events="none" x="0" y="10" font-size="10px" fill="#FFFFFF" font-family="sans-serif"> Rea</text></g><g class="node" transform="translate(117.19656925204937,-110.90249631166371)"><circle class="outline" cx="0" cy="0" r="25" fill="#F79767" stroke="#f36924" stroke-width="2px"/><text text-anchor="middle" pointer-events="none" font-family="sans-serif" dy="1.5625" font-size="25" fill="#FFFFFF"/><text text-anchor="middle" pointer-events="none" font-family="sans-serif" dy="1.5625" font-size="25" fill="#FFFFFF"/><text text-anchor="middle" pointer-events="none" x="0" y="0" font-size="10px" fill="#FFFFFF" font-family="sans-serif"> Natalie</text><text text-anchor="middle" pointer-events="none" x="0" y="10" font-size="10px" fill="#FFFFFF" font-family="sans-serif"> Portman</text></g><g class="node" transform="translate(209.31312373881983,-102.09907709931421)"><circle class="outline" cx="0" cy="0" r="25" fill="#F79767" stroke="#f36924" stroke-width="2px"/><text text-anchor="middle" pointer-events="none" font-family="sans-serif" dy="1.5625" font-size="25" fill="#FFFFFF"/><text text-anchor="middle" pointer-events="none" x="0" y="5" font-size="10px" fill="#FFFFFF" font-family="sans-serif"> Ben Miles</text></g><g class="node" transform="translate(-48.001813503262845,-18.880893089143484)"><circle class="outline" cx="0" cy="0" r="25" fill="#57C7E3" stroke="#23b3d7" stroke-width="2px"/><text text-anchor="middle" pointer-events="none" font-family="sans-serif" dy="1.5625" font-size="25" fill="#2A2C34"/><text text-anchor="middle" pointer-events="none" font-family="sans-serif" dy="1.5625" font-size="25" fill="#2A2C34"/><text text-anchor="middle" pointer-events="none" font-family="sans-serif" dy="1.5625" font-size="25" fill="#2A2C34"/><text text-anchor="middle" pointer-events="none" x="0" y="-5" font-size="10px" fill="#2A2C34" font-family="sans-serif"> The</text><text text-anchor="middle" pointer-events="none" x="0" y="5" font-size="10px" fill="#2A2C34" font-family="sans-serif"> Matrix</text><text text-anchor="middle" pointer-events="none" x="0" y="15" font-size="10px" fill="#2A2C34" font-family="sans-serif"> Revol…</text></g><g class="node" transform="translate(-97.92699133654492,55.49812766832861)"><circle class="outline" cx="0" cy="0" r="25" fill="#F79767" stroke="#f36924" stroke-width="2px"/><text text-anchor="middle" pointer-events="none" font-family="sans-serif" dy="1.5625" font-size="25" fill="#FFFFFF"/><text text-anchor="middle" pointer-events="none" font-family="sans-serif" dy="1.5625" font-size="25" fill="#FFFFFF"/><text text-anchor="middle" pointer-events="none" x="0" y="0" font-size="10px" fill="#FFFFFF" font-family="sans-serif"> Laurence</text><text text-anchor="middle" pointer-events="none" x="0" y="10" font-size="10px" fill="#FFFFFF" font-family="sans-serif"> Fishbur…</text></g><g class="node" transform="translate(-23.15967040342617,70.71046890951966)"><circle class="outline" cx="0" cy="0" r="25" fill="#F79767" stroke="#f36924" stroke-width="2px"/><text text-anchor="middle" pointer-events="none" font-family="sans-serif" dy="1.5625" font-size="25" fill="#FFFFFF"/><text text-anchor="middle" pointer-events="none" x="0" y="5" font-size="10px" fill="#FFFFFF" font-family="sans-serif"> Carrie-A…</text></g><g class="node" transform="translate(-152.6712633009451,79.58720973248528)"><circle class="outline" cx="0" cy="0" r="25" fill="#F79767" stroke="#f36924" stroke-width="2px"/><text text-anchor="middle" pointer-events="none" font-family="sans-serif" dy="1.5625" font-size="25" fill="#FFFFFF"/><text text-anchor="middle" pointer-events="none" font-family="sans-serif" dy="1.5625" font-size="25" fill="#FFFFFF"/><text text-anchor="middle" pointer-events="none" x="0" y="0" font-size="10px" fill="#FFFFFF" font-family="sans-serif"> Keanu</text><text text-anchor="middle" pointer-events="none" x="0" y="10" font-size="10px" fill="#FFFFFF" font-family="sans-serif"> Reeves</text></g><g class="node" transform="translate(-93.10266680089393,149.9415832066677)"><circle class="outline" cx="0" cy="0" r="25" fill="#57C7E3" stroke="#23b3d7" stroke-width="2px"/><text text-anchor="middle" pointer-events="none" font-family="sans-serif" dy="1.5625" font-size="25" fill="#2A2C34"/><text text-anchor="middle" pointer-events="none" font-family="sans-serif" dy="1.5625" font-size="25" fill="#2A2C34"/><text text-anchor="middle" pointer-events="none" font-family="sans-serif" dy="1.5625" font-size="25" fill="#2A2C34"/><text text-anchor="middle" pointer-events="none" x="0" y="-5" font-size="10px" fill="#2A2C34" font-family="sans-serif"> The</text><text text-anchor="middle" pointer-events="none" x="0" y="5" font-size="10px" fill="#2A2C34" font-family="sans-serif"> Matrix</text><text text-anchor="middle" pointer-events="none" x="0" y="15" font-size="10px" fill="#2A2C34" font-family="sans-serif"> Reloa…</text></g><g class="node" transform="translate(-37.09545052898189,170.8892188754956)"><circle class="outline" cx="0" cy="0" r="25" fill="#57C7E3" stroke="#23b3d7" stroke-width="2px"/><text text-anchor="middle" pointer-events="none" font-family="sans-serif" dy="1.5625" font-size="25" fill="#2A2C34"/><text text-anchor="middle" pointer-events="none" font-family="sans-serif" dy="1.5625" font-size="25" fill="#2A2C34"/><text text-anchor="middle" pointer-events="none" x="0" y="0" font-size="10px" fill="#2A2C34" font-family="sans-serif"> The</text><text text-anchor="middle" pointer-events="none" x="0" y="10" font-size="10px" fill="#2A2C34" font-family="sans-serif"> Matrix</text></g><g class="node" transform="translate(-67.55071171078144,289.86150125201544)"><circle class="outline" cx="0" cy="0" r="25" fill="#F79767" stroke="#f36924" stroke-width="2px"/><text text-anchor="middle" pointer-events="none" font-family="sans-serif" dy="1.5625" font-size="25" fill="#FFFFFF"/><text text-anchor="middle" pointer-events="none" font-family="sans-serif" dy="1.5625" font-size="25" fill="#FFFFFF"/><text text-anchor="middle" pointer-events="none" x="0" y="0" font-size="10px" fill="#FFFFFF" font-family="sans-serif"> Emil</text><text text-anchor="middle" pointer-events="none" x="0" y="10" font-size="10px" fill="#FFFFFF" font-family="sans-serif"> Eifrem</text></g></g></svg>