<svg xmlns="http://www.w3.org/2000/svg" width="379.6895446777344" height="371.0965881347656" viewBox="-92.28081512451172 -82.7479476928711 379.6895446777344 371.0965881347656"><title>Neo4j Graph Visualization</title><desc>Created using Neo4j (http://www.neo4j.com/)</desc><g class="layer relationships"><g class="relationship" transform="translate(151.85329427266808 259.3486391640251) rotate(306.0065122202202)"><path class="outline" fill="#A5ABB6" stroke="none" d="M 24.018736134675446,6.953439040707552 L 24.277555179777966,5.987513214418485 A 100.13719634584103 100.13719634584103 0 0 0 25.489321149956194,6.304096372496005 L 25.242603162346764,7.273183692911431 A 101.13719634584103 101.13719634584103 0 0 1 24.018736134675446,6.953439040707552 Z M 71.93486330587808,8.0354290313104 L 71.71990881461173,7.0588049651086635 A 100.13719634584103 100.13719634584103 0 0 0 72.9413626892435,6.781943818308928 L 72.25990580402876,3.8603660744189217 L 79.87195357252264,5.678807376789528 L 73.84997186952984,10.677380810162271 L 73.1685149843151,7.755803066272264 A 101.13719634584103 101.13719634584103 0 0 1 71.93486330587808,8.0354290313104"/><text text-anchor="middle" pointer-events="none" font-size="8px" fill="#000000" x="48.55229787860806" y="12.886198132292208" font-family="sans-serif">DIRECTED</text></g><g class="relationship" transform="translate(151.85329427266808 259.3486391640251) rotate(306.0065122202202)"><path class="outline" fill="#A5ABB6" stroke="none" d="M 24.018736134675446,-6.953439040707552 L 24.277555179777966,-5.987513214418485 A 100.13719634584103 100.13719634584103 0 0 1 30.884271968273872,-7.520004640809901 L 30.691429573502948,-8.501234384946827 A 101.13719634584103 101.13719634584103 0 0 0 24.018736134675446,-6.953439040707552 Z M 66.4488554955777,-9.084969914956815 L 66.28814423042908,-8.097968451303217 A 100.13719634584103 100.13719634584103 0 0 1 72.9413626892435,-6.781943818308928 L 72.25990580402876,-3.8603660744189217 L 79.87195357252264,-5.678807376789528 L 73.84997186952984,-10.677380810162271 L 73.1685149843151,-7.755803066272264 A 101.13719634584103 101.13719634584103 0 0 0 66.4488554955777,-9.084969914956815"/><text text-anchor="middle" pointer-events="none" font-size="8px" fill="#000000" x="48.55229787860805" y="-6.886198132292208" font-family="sans-serif">WROTE</text></g><g class="relationship" transform="translate(258.4087296928349 81.10462574566932) rotate(475.7392163195138)"><path class="outline" fill="#A5ABB6" stroke="none" d="M 24.018736134675446,6.953439040707552 L 24.277555179777966,5.987513214418485 A 100.26751071947818 100.26751071947818 0 0 0 25.521103205147035,6.3121932209867 L 25.274686462808848,7.281357184975988 A 101.26751071947818 101.26751071947818 0 0 1 24.018736134675446,6.953439040707552 Z M 71.96775105905901,8.043169009836234 L 71.75308147405974,7.0664822794685875 A 100.26751071947818 100.26751071947818 0 0 0 73.00655932768667,6.782542024254242 L 72.32504656432269,3.860977314484495 L 79.93712911104342,5.679273028033228 L 73.915243012172,10.67796163728057 L 73.23373024880802,7.756396927510823 A 101.26751071947818 101.26751071947818 0 0 1 71.96775105905901,8.043169009836234"/><text text-anchor="middle" pointer-events="none" font-size="8px" fill="#000000" x="48.58486215230245" y="12.890636850519925" transform="rotate(180 48.58486215230245 9.890636850519925)" font-family="sans-serif">DIRECTED</text></g><g class="relationship" transform="translate(258.4087296928349 81.10462574566932) rotate(475.7392163195138)"><path class="outline" fill="#A5ABB6" stroke="none" d="M 24.018736134675446,-6.953439040707552 L 24.277555179777966,-5.987513214418485 A 100.26751071947818 100.26751071947818 0 0 1 30.916424960524875,-7.526625384676606 L 30.72381749016984,-8.507901269615914 A 101.26751071947818 101.26751071947818 0 0 0 24.018736134675446,-6.953439040707552 Z M 66.48150801771881,-9.091299076316488 L 66.3210141797322,-8.104262234061679 A 100.26751071947818 100.26751071947818 0 0 1 73.00655932768667,-6.782542024254242 L 72.32504656432269,-3.860977314484495 L 79.93712911104342,-5.679273028033228 L 73.915243012172,-10.67796163728057 L 73.23373024880802,-7.756396927510823 A 101.26751071947818 101.26751071947818 0 0 0 66.48150801771881,-9.091299076316488"/><text text-anchor="middle" pointer-events="none" font-size="8px" fill="#000000" x="48.584862152302435" y="-6.890636850519925" transform="rotate(180 48.584862152302435 -9.890636850519925)" font-family="sans-serif">WROTE</text></g><g class="relationship" transform="translate(143.3937224594479 -53.74794929188111) rotate(534.8255634403886)"><path class="outline" fill="#A5ABB6" stroke="none" d="M 21.40063509461097,12.933012701892217 L 21.90063509461097,12.06698729810778 A 56.7044239103957 56.7044239103957 0 0 0 23.8522538573369,13.143182052352074 L 23.386671255983078,14.028186482463362 A 57.7044239103957 57.7044239103957 0 0 1 21.40063509461097,12.933012701892217 Z M 73.83003997413843,15.627499438059644 L 73.42145443898187,14.714779404061908 A 56.7044239103957 56.7044239103957 0 0 0 75.43732678536283,13.764374423444002 L 74.10491858867519,11.076496376098923 L 81.93111026194929,11.103401639063682 L 77.21387104761303,17.348211819904105 L 75.88146285092539,14.660333772559026 A 57.7044239103957 57.7044239103957 0 0 1 73.83003997413843,15.627499438059644"/><text text-anchor="middle" pointer-events="none" font-size="8px" fill="#000000" x="48.44008492034047" y="23.135209894627835" transform="rotate(180 48.44008492034047 20.135209894627835)" font-family="sans-serif">PRODUCED</text></g><g class="relationship" transform="translate(143.3937224594479 -53.74794929188111) rotate(534.8255634403886)"><path class="outline" fill="#A5ABB6" stroke="none" d="M 25 0.5 L 25.21973449491246 0.5 L 25.21973449491246 -0.5 L 25 -0.5 Z M 72.11035949491246 0.5 L 72.33009398982492 0.5 L 72.33009398982492 3.5 L 79.33009398982492 0 L 72.33009398982492 -3.5 L 72.33009398982492 -0.5 L 72.11035949491246 -0.5 Z"/><text text-anchor="middle" pointer-events="none" font-size="8px" fill="#000000" x="48.66504699491246" y="3" transform="rotate(180 48.66504699491246 0)" font-family="sans-serif">DIRECTED</text></g><g class="relationship" transform="translate(143.3937224594479 -53.74794929188111) rotate(534.8255634403886)"><path class="outline" fill="#A5ABB6" stroke="none" d="M 21.40063509461097,-12.933012701892217 L 21.90063509461097,-12.06698729810778 A 56.7044239103957 56.7044239103957 0 0 1 31.108944806486956,-16.33462877978038 L 30.77133618756204,-17.275915356986076 A 57.7044239103957 57.7044239103957 0 0 0 21.40063509461097,-12.933012701892217 Z M 66.25447402948498,-18.40091242791666 L 65.97717073286904,-17.44012999589267 A 56.7044239103957 56.7044239103957 0 0 1 75.43732678536283,-13.764374423444002 L 74.10491858867519,-11.076496376098923 L 81.93111026194929,-11.103401639063682 L 77.21387104761303,-17.348211819904105 L 75.88146285092539,-14.660333772559026 A 57.7044239103957 57.7044239103957 0 0 0 66.25447402948498,-18.40091242791666"/><text text-anchor="middle" pointer-events="none" font-size="8px" fill="#000000" x="48.44008492034047" y="-17.135209894627835" transform="rotate(180 48.44008492034047 -20.135209894627835)" font-family="sans-serif">WROTE</text></g><g class="relationship" transform="translate(-63.28081527776844 98.71326141444904) rotate(432.5816537225313)"><path class="outline" fill="#A5ABB6" stroke="none" d="M 21.40063509461097,12.933012701892217 L 21.90063509461097,12.06698729810778 A 57.600490342918945 57.600490342918945 0 0 0 31.529515384041094,16.499935727270923 L 31.19668202154896,17.442921386129093 A 58.600490342918945 58.600490342918945 0 0 1 21.40063509461097,12.933012701892217 Z M 66.69316780128919,18.55959545828341 L 66.42026415420987,17.597554087337855 A 57.600490342918945 57.600490342918945 0 0 0 76.30873885331512,13.77859669965324 L 74.97500757248102,11.091374924189852 L 82.80121154286871,11.114427340284218 L 78.08704722776059,17.361559066937758 L 76.75331594692649,14.674337291474371 A 58.600490342918945 58.600490342918945 0 0 1 66.69316780128919,18.55959545828341"/><text text-anchor="middle" pointer-events="none" font-size="8px" fill="#000000" x="48.874016857294556" y="23.255261445706246" font-family="sans-serif">WROTE</text></g><g class="relationship" transform="translate(-63.28081527776844 98.71326141444904) rotate(432.5816537225313)"><path class="outline" fill="#A5ABB6" stroke="none" d="M 25 0.5 L 25.652050669198452 0.5 L 25.652050669198452 -0.5 L 25 -0.5 Z M 72.54267566919845 0.5 L 73.1947263383969 0.5 L 73.1947263383969 3.5 L 80.1947263383969 0 L 73.1947263383969 -3.5 L 73.1947263383969 -0.5 L 72.54267566919845 -0.5 Z"/><text text-anchor="middle" pointer-events="none" font-size="8px" fill="#000000" x="49.09736316919845" y="3" font-family="sans-serif">DIRECTED</text></g><g class="relationship" transform="translate(-63.28081527776844 98.71326141444904) rotate(432.5816537225313)"><path class="outline" fill="#A5ABB6" stroke="none" d="M 21.40063509461097,-12.933012701892217 L 21.90063509461097,-12.06698729810778 A 57.600490342918945 57.600490342918945 0 0 1 24.252171059479583,-13.352652882328805 L 23.792995989108984,-14.240998679161407 A 58.600490342918945 58.600490342918945 0 0 0 21.40063509461097,-12.933012701892217 Z M 74.28347180533856,-15.829364513023712 L 73.88104187000411,-14.913913723987669 A 57.600490342918945 57.600490342918945 0 0 1 76.30873885331512,-13.77859669965324 L 74.97500757248102,-11.091374924189852 L 82.80121154286871,-11.114427340284218 L 78.08704722776059,-17.361559066937758 L 76.75331594692649,-14.674337291474371 A 58.600490342918945 58.600490342918945 0 0 0 74.28347180533856,-15.829364513023712"/><text text-anchor="middle" pointer-events="none" font-size="8px" fill="#000000" x="48.87401685729455" y="-17.255261445706246" font-family="sans-serif">PRODUCED</text></g></g><g class="layer nodes"><g class="node" transform="translate(151.85329427266808,259.3486391640251)"><circle class="outline" cx="0" cy="0" r="25" fill="#F79767" stroke="#f36924" stroke-width="2px"/><text text-anchor="middle" pointer-events="none" font-family="sans-serif" dy="1.5625" font-size="25" fill="#FFFFFF"/><text text-anchor="middle" pointer-events="none" font-family="sans-serif" dy="1.5625" font-size="25" fill="#FFFFFF"/><text text-anchor="middle" pointer-events="none" x="0" y="0" font-size="10px" fill="#FFFFFF" font-family="sans-serif"> Lilly</text><text text-anchor="middle" pointer-events="none" x="0" y="10" font-size="10px" fill="#FFFFFF" font-family="sans-serif"> Wacho…</text></g><g class="node" transform="translate(213.12093601046482,175.04111742288688)"><circle class="outline" cx="0" cy="0" r="25" fill="#57C7E3" stroke="#23b3d7" stroke-width="2px"/><text text-anchor="middle" pointer-events="none" font-family="sans-serif" dy="1.5625" font-size="25" fill="#2A2C34"/><text text-anchor="middle" pointer-events="none" font-family="sans-serif" dy="1.5625" font-size="25" fill="#2A2C34"/><text text-anchor="middle" pointer-events="none" x="0" y="0" font-size="10px" fill="#2A2C34" font-family="sans-serif"> Speed</text><text text-anchor="middle" pointer-events="none" x="0" y="10" font-size="10px" fill="#2A2C34" font-family="sans-serif"> Racer</text></g><g class="node" transform="translate(258.4087296928349,81.10462574566932)"><circle class="outline" cx="0" cy="0" r="25" fill="#F79767" stroke="#f36924" stroke-width="2px"/><text text-anchor="middle" pointer-events="none" font-family="sans-serif" dy="1.5625" font-size="25" fill="#FFFFFF"/><text text-anchor="middle" pointer-events="none" font-family="sans-serif" dy="1.5625" font-size="25" fill="#FFFFFF"/><text text-anchor="middle" pointer-events="none" x="0" y="0" font-size="10px" fill="#FFFFFF" font-family="sans-serif"> Lana</text><text text-anchor="middle" pointer-events="none" x="0" y="10" font-size="10px" fill="#FFFFFF" font-family="sans-serif"> Wacho…</text></g><g class="node" transform="translate(143.3937224594479,-53.74794929188111)"><circle class="outline" cx="0" cy="0" r="25" fill="#F79767" stroke="#f36924" stroke-width="2px"/><text text-anchor="middle" pointer-events="none" font-family="sans-serif" dy="1.5625" font-size="25" fill="#FFFFFF"/><text text-anchor="middle" pointer-events="none" font-family="sans-serif" dy="1.5625" font-size="25" fill="#FFFFFF"/><text text-anchor="middle" pointer-events="none" x="0" y="0" font-size="10px" fill="#FFFFFF" font-family="sans-serif"> Cameron</text><text text-anchor="middle" pointer-events="none" x="0" y="10" font-size="10px" fill="#FFFFFF" font-family="sans-serif"> Crowe</text></g><g class="node" transform="translate(39.48880107417539,-44.33860160747486)"><circle class="outline" cx="0" cy="0" r="25" fill="#57C7E3" stroke="#23b3d7" stroke-width="2px"/><text text-anchor="middle" pointer-events="none" font-family="sans-serif" dy="1.5625" font-size="25" fill="#2A2C34"/><text text-anchor="middle" pointer-events="none" font-family="sans-serif" dy="1.5625" font-size="25" fill="#2A2C34"/><text text-anchor="middle" pointer-events="none" x="0" y="0" font-size="10px" fill="#2A2C34" font-family="sans-serif"> Jerry</text><text text-anchor="middle" pointer-events="none" x="0" y="10" font-size="10px" fill="#2A2C34" font-family="sans-serif"> Maguire</text></g><g class="node" transform="translate(-63.28081527776844,98.71326141444904)"><circle class="outline" cx="0" cy="0" r="25" fill="#F79767" stroke="#f36924" stroke-width="2px"/><text text-anchor="middle" pointer-events="none" font-family="sans-serif" dy="1.5625" font-size="25" fill="#FFFFFF"/><text text-anchor="middle" pointer-events="none" font-family="sans-serif" dy="1.5625" font-size="25" fill="#FFFFFF"/><text text-anchor="middle" pointer-events="none" x="0" y="0" font-size="10px" fill="#FFFFFF" font-family="sans-serif"> Nancy</text><text text-anchor="middle" pointer-events="none" x="0" y="10" font-size="10px" fill="#FFFFFF" font-family="sans-serif"> Meyers</text></g><g class="node" transform="translate(-31.791160277455003,199.0842336991263)"><circle class="outline" cx="0" cy="0" r="25" fill="#57C7E3" stroke="#23b3d7" stroke-width="2px"/><text text-anchor="middle" pointer-events="none" font-family="sans-serif" dy="1.5625" font-size="25" fill="#2A2C34"/><text text-anchor="middle" pointer-events="none" x="0" y="5" font-size="10px" fill="#2A2C34" font-family="sans-serif"> Somethi…</text></g></g></svg>