<svg xmlns="http://www.w3.org/2000/svg" width="58" height="160.52041625976562" viewBox="71 19.739795684814453 58 160.52041625976562"><title>Neo4j Graph Visualization</title><desc>Created using Neo4j (http://www.neo4j.com/)</desc><g class="layer relationships"><g class="relationship" transform="translate(100 151.26020460899477) rotate(270)"><path class="outline" fill="#A5ABB6" stroke="none" d="M 24.018736134675446,6.953439040707552 L 24.277555179777966,5.987513214418485 A 96.73436289511092 96.73436289511092 0 0 0 26.805391122501156,6.628453075553793 L 26.572703804192184,7.6010046741325965 A 97.73436289511092 97.73436289511092 0 0 1 24.018736134675446,6.953439040707552 Z M 68.89253024374169,8.302605273047078 L 68.69220889257207,7.322875026364045 A 96.73436289511092 96.73436289511092 0 0 0 71.23990152187261,6.766079978323052 L 70.55992647724172,3.8441569918842893 L 78.1710509976682,5.666458705257432 L 72.1465349147138,10.661977293574736 L 71.4665598700829,7.740054307135972 A 97.73436289511092 97.73436289511092 0 0 1 68.89253024374169,8.302605273047078"/><text text-anchor="middle" pointer-events="none" font-size="8px" fill="#000000" x="47.70246909344488" y="12.77029713163381" font-family="sans-serif">FLIGHT…</text></g><g class="relationship" transform="translate(100 48.739795391003554) rotate(450)"><path class="outline" fill="#A5ABB6" stroke="none" d="M 24.018736134675446,6.953439040707552 L 24.277555179777966,5.987513214418485 A 96.73436289511092 96.73436289511092 0 0 0 26.805391122501156,6.628453075553793 L 26.572703804192184,7.6010046741325965 A 97.73436289511092 97.73436289511092 0 0 1 24.018736134675446,6.953439040707552 Z M 68.89253024374169,8.302605273047078 L 68.69220889257207,7.322875026364045 A 96.73436289511092 96.73436289511092 0 0 0 71.23990152187261,6.766079978323052 L 70.55992647724172,3.8441569918842893 L 78.1710509976682,5.666458705257432 L 72.1465349147138,10.661977293574736 L 71.4665598700829,7.740054307135972 A 97.73436289511092 97.73436289511092 0 0 1 68.89253024374169,8.302605273047078"/><text text-anchor="middle" pointer-events="none" font-size="8px" fill="#000000" x="47.70246909344488" y="12.77029713163381" font-family="sans-serif">FLIGHT…</text></g></g><g class="layer nodes"><g class="node" transform="translate(100,151.26020460899477)"><circle class="outline" cx="0" cy="0" r="25" fill="#FFC454" stroke="#d7a013" stroke-width="2px"/><text text-anchor="middle" pointer-events="none" font-family="sans-serif" dy="1.5625" font-size="25" fill="#2A2C34"/><text text-anchor="middle" pointer-events="none" x="0" y="5" font-size="10px" fill="#2A2C34" font-family="sans-serif"> MSN</text></g><g class="node" transform="translate(100,48.739795391003554)"><circle class="outline" cx="0" cy="0" r="25" fill="#FFC454" stroke="#d7a013" stroke-width="2px"/><text text-anchor="middle" pointer-events="none" font-family="sans-serif" dy="1.5625" font-size="25" fill="#2A2C34"/><text text-anchor="middle" pointer-events="none" x="0" y="5" font-size="10px" fill="#2A2C34" font-family="sans-serif"> ORD</text></g></g></svg>