<svg xmlns="http://www.w3.org/2000/svg" width="288.2823181152344" height="283.64703369140625" viewBox="-51.42615509033203 -41.85697937011719 288.2823181152344 283.64703369140625"><title>Neo4j Graph Visualization</title><desc>Created using Neo4j (http://www.neo4j.com/)</desc><g class="layer relationships"><g class="relationship" transform="translate(151.4559930762125 206.01319823837866) rotate(239.2802658769989)"><path class="outline" fill="#A5ABB6" stroke="none" d="M 25 0.5 L 37.45231034494884 0.5 L 37.45231034494884 -0.5 L 25 -0.5 Z M 73.22574784494884 0.5 L 85.67805818989768 0.5 L 85.67805818989768 3.5 L 92.67805818989768 0 L 85.67805818989768 -3.5 L 85.67805818989768 -0.5 L 73.22574784494884 -0.5 Z"/><text text-anchor="middle" pointer-events="none" font-size="8px" fill="#000000" x="55.33902909494884" y="3" transform="rotate(180 55.33902909494884 0)" font-family="sans-serif">WROTE</text></g><g class="relationship" transform="translate(207.85615672287668 121.03638623959907) rotate(187.90988173751248)"><path class="outline" fill="#A5ABB6" stroke="none" d="M 25 0.5 L 31.87164220145643 0.5 L 31.87164220145643 -0.5 L 25 -0.5 Z M 78.76226720145644 0.5 L 85.63390940291286 0.5 L 85.63390940291286 3.5 L 92.63390940291286 0 L 85.63390940291286 -3.5 L 85.63390940291286 -0.5 L 78.76226720145644 -0.5 Z"/><text text-anchor="middle" pointer-events="none" font-size="8px" fill="#000000" x="55.31695470145643" y="3" transform="rotate(180 55.31695470145643 0)" font-family="sans-serif">DIRECTED</text></g><g class="relationship" transform="translate(181.6401814118136 30.20801035546223) rotate(500.4231633912391)"><path class="outline" fill="#A5ABB6" stroke="none" d="M 25 0.5 L 37.19017986877645 0.5 L 37.19017986877645 -0.5 L 25 -0.5 Z M 72.96361736877645 0.5 L 85.1537972375529 0.5 L 85.1537972375529 3.5 L 92.1537972375529 0 L 85.1537972375529 -3.5 L 85.1537972375529 -0.5 L 72.96361736877645 -0.5 Z"/><text text-anchor="middle" pointer-events="none" font-size="8px" fill="#000000" x="55.07689861877645" y="3" transform="rotate(180 55.07689861877645 0)" font-family="sans-serif">WROTE</text></g><g class="relationship" transform="translate(97.42201905815006 -12.856979718588805) rotate(452.9572349173636)"><path class="outline" fill="#A5ABB6" stroke="none" d="M 25 0.5 L 32.64979295041011 0.5 L 32.64979295041011 -0.5 L 25 -0.5 Z M 78.2122929504101 0.5 L 85.86208590082022 0.5 L 85.86208590082022 3.5 L 92.86208590082022 0 L 85.86208590082022 -3.5 L 85.86208590082022 -0.5 L 78.2122929504101 -0.5 Z"/><text text-anchor="middle" pointer-events="none" font-size="8px" fill="#000000" x="55.43104295041011" y="3" transform="rotate(180 55.43104295041011 0)" font-family="sans-serif">ACTED_IN</text></g><g class="relationship" transform="translate(1.520685171429606 29.63677315461422) rotate(399.94110871447566)"><path class="outline" fill="#A5ABB6" stroke="none" d="M 25 0.5 L 32.29459956051664 0.5 L 32.29459956051664 -0.5 L 25 -0.5 Z M 77.85709956051664 0.5 L 85.15169912103327 0.5 L 85.15169912103327 3.5 L 92.15169912103327 0 L 85.15169912103327 -3.5 L 85.15169912103327 -0.5 L 77.85709956051664 -0.5 Z"/><text text-anchor="middle" pointer-events="none" font-size="8px" fill="#000000" x="55.07584956051664" y="3" font-family="sans-serif">ACTED_IN</text></g><g class="relationship" transform="translate(-22.426155650039895 132.57629211975365) rotate(346.30257244472875)"><path class="outline" fill="#A5ABB6" stroke="none" d="M 25 0.5 L 37.162228884688766 0.5 L 37.162228884688766 -0.5 L 25 -0.5 Z M 72.93566638468877 0.5 L 85.09789526937753 0.5 L 85.09789526937753 3.5 L 92.09789526937753 0 L 85.09789526937753 -3.5 L 85.09789526937753 -0.5 L 72.93566638468877 -0.5 Z"/><text text-anchor="middle" pointer-events="none" font-size="8px" fill="#000000" x="55.048947634688766" y="3" font-family="sans-serif">WROTE</text></g><g class="relationship" transform="translate(47.04578325002167 212.79004146670403) rotate(292.3115709668295)"><path class="outline" fill="#A5ABB6" stroke="none" d="M 25 0.5 L 36.95185634857451 0.5 L 36.95185634857451 -0.5 L 25 -0.5 Z M 72.72529384857451 0.5 L 84.67715019714902 0.5 L 84.67715019714902 3.5 L 91.67715019714902 0 L 84.67715019714902 -3.5 L 84.67715019714902 -0.5 L 72.72529384857451 -0.5 Z"/><text text-anchor="middle" pointer-events="none" font-size="8px" fill="#000000" x="54.83857509857451" y="3" font-family="sans-serif">WROTE</text></g></g><g class="layer nodes"><g class="node" transform="translate(91.34144649497092,104.8481515637654)"><circle class="outline" cx="0" cy="0" r="25" fill="#57C7E3" stroke="#23b3d7" stroke-width="2px"/><text text-anchor="middle" pointer-events="none" font-family="sans-serif" dy="1.5625" font-size="25" fill="#2A2C34"/><text text-anchor="middle" pointer-events="none" font-family="sans-serif" dy="1.5625" font-size="25" fill="#2A2C34"/><text text-anchor="middle" pointer-events="none" font-family="sans-serif" dy="1.5625" font-size="25" fill="#2A2C34"/><text text-anchor="middle" pointer-events="none" x="0" y="-5" font-size="10px" fill="#2A2C34" font-family="sans-serif"> Captain</text><text text-anchor="middle" pointer-events="none" x="0" y="5" font-size="10px" fill="#2A2C34" font-family="sans-serif"> America:</text><text text-anchor="middle" pointer-events="none" x="0" y="15" font-size="10px" fill="#2A2C34" font-family="sans-serif"> The Fi…</text></g><g class="node" transform="translate(151.4559930762125,206.01319823837866)"><circle class="outline" cx="0" cy="0" r="25" fill="#F79767" stroke="#f36924" stroke-width="2px"/><text text-anchor="middle" pointer-events="none" font-family="sans-serif" dy="1.5625" font-size="25" fill="#FFFFFF"/><text text-anchor="middle" pointer-events="none" font-family="sans-serif" dy="1.5625" font-size="25" fill="#FFFFFF"/><text text-anchor="middle" pointer-events="none" x="0" y="0" font-size="10px" fill="#FFFFFF" font-family="sans-serif"> Joe</text><text text-anchor="middle" pointer-events="none" x="0" y="10" font-size="10px" fill="#FFFFFF" font-family="sans-serif"> Simon</text></g><g class="node" transform="translate(207.85615672287668,121.03638623959907)"><circle class="outline" cx="0" cy="0" r="25" fill="#F79767" stroke="#f36924" stroke-width="2px"/><text text-anchor="middle" pointer-events="none" font-family="sans-serif" dy="1.5625" font-size="25" fill="#FFFFFF"/><text text-anchor="middle" pointer-events="none" font-family="sans-serif" dy="1.5625" font-size="25" fill="#FFFFFF"/><text text-anchor="middle" pointer-events="none" x="0" y="0" font-size="10px" fill="#FFFFFF" font-family="sans-serif"> Joe</text><text text-anchor="middle" pointer-events="none" x="0" y="10" font-size="10px" fill="#FFFFFF" font-family="sans-serif"> Johnston</text></g><g class="node" transform="translate(181.6401814118136,30.20801035546223)"><circle class="outline" cx="0" cy="0" r="25" fill="#F79767" stroke="#f36924" stroke-width="2px"/><text text-anchor="middle" pointer-events="none" font-family="sans-serif" dy="1.5625" font-size="25" fill="#FFFFFF"/><text text-anchor="middle" pointer-events="none" x="0" y="5" font-size="10px" fill="#FFFFFF" font-family="sans-serif"> Christop…</text></g><g class="node" transform="translate(97.42201905815006,-12.856979718588805)"><circle class="outline" cx="0" cy="0" r="25" fill="#F79767" stroke="#f36924" stroke-width="2px"/><text text-anchor="middle" pointer-events="none" font-family="sans-serif" dy="1.5625" font-size="25" fill="#FFFFFF"/><text text-anchor="middle" pointer-events="none" x="0" y="5" font-size="10px" fill="#FFFFFF" font-family="sans-serif"> Sebastian</text></g><g class="node" transform="translate(1.520685171429606,29.63677315461422)"><circle class="outline" cx="0" cy="0" r="25" fill="#F79767" stroke="#f36924" stroke-width="2px"/><text text-anchor="middle" pointer-events="none" font-family="sans-serif" dy="1.5625" font-size="25" fill="#FFFFFF"/><text text-anchor="middle" pointer-events="none" font-family="sans-serif" dy="1.5625" font-size="25" fill="#FFFFFF"/><text text-anchor="middle" pointer-events="none" x="0" y="0" font-size="10px" fill="#FFFFFF" font-family="sans-serif"> Chris</text><text text-anchor="middle" pointer-events="none" x="0" y="10" font-size="10px" fill="#FFFFFF" font-family="sans-serif"> Evans</text></g><g class="node" transform="translate(-22.426155650039895,132.57629211975365)"><circle class="outline" cx="0" cy="0" r="25" fill="#F79767" stroke="#f36924" stroke-width="2px"/><text text-anchor="middle" pointer-events="none" font-family="sans-serif" dy="1.5625" font-size="25" fill="#FFFFFF"/><text text-anchor="middle" pointer-events="none" font-family="sans-serif" dy="1.5625" font-size="25" fill="#FFFFFF"/><text text-anchor="middle" pointer-events="none" x="0" y="0" font-size="10px" fill="#FFFFFF" font-family="sans-serif"> Stephen</text><text text-anchor="middle" pointer-events="none" x="0" y="10" font-size="10px" fill="#FFFFFF" font-family="sans-serif"> McFeely</text></g><g class="node" transform="translate(47.04578325002167,212.79004146670403)"><circle class="outline" cx="0" cy="0" r="25" fill="#F79767" stroke="#f36924" stroke-width="2px"/><text text-anchor="middle" pointer-events="none" font-family="sans-serif" dy="1.5625" font-size="25" fill="#FFFFFF"/><text text-anchor="middle" pointer-events="none" x="0" y="5" font-size="10px" fill="#FFFFFF" font-family="sans-serif"> Jack Kirby</text></g></g></svg>