<svg xmlns="http://www.w3.org/2000/svg" width="316.3515930175781" height="412.34295654296875" viewBox="-64.02513885498047 -113.01985931396484 316.3515930175781 412.34295654296875"><title>Neo4j Graph Visualization</title><desc>Created using Neo4j (http://www.neo4j.com/)</desc><g class="layer relationships"><g class="relationship" transform="translate(175.55418917067558 270.32309721287686) rotate(242.97953421058776)"><path class="outline" fill="#A5ABB6" stroke="none" d="M 21.40063509461097,12.933012701892217 L 21.90063509461097,12.06698729810778 A 63.98841062707227 63.98841062707227 0 0 0 42.45709291119179,19.609277930305026 L 42.278345738307394,20.593172969516957 A 64.98841062707227 64.98841062707227 0 0 1 21.40063509461097,12.933012701892217 Z M 61.68267489935229,21.171496951990903 L 61.562840694821666,20.178703034088244 A 63.98841062707227 63.98841062707227 0 0 0 82.53199135166595,13.87403597896455 L 81.18938177614058,11.19123901912812 L 89.01561918720517,11.188413129378093 L 84.32213745236643,17.451098592079788 L 82.97952787684106,14.768301632243361 A 64.98841062707227 64.98841062707227 0 0 1 61.68267489935229,21.171496951990903"/><text text-anchor="middle" pointer-events="none" font-size="8px" fill="#000000" x="51.973689665543105" y="24.111186271576386" transform="rotate(180 51.973689665543105 21.111186271576386)" font-family="sans-serif">trek</text></g><g class="relationship" transform="translate(124.9567984680084 171.10775330260896) rotate(315.6785163619444)"><path class="outline" fill="#F16667" stroke="none" d="M 23.501098044470403,-8.88529069328569 L 24.79519326998301,-4.055661561840347 A 132.18308067926492 132.18308067926492 0 0 1 33.55895634016874,-6.08697814090263 L 32.596362053549015,-10.993444510844142 A 137.18308067926492 137.18308067926492 0 0 0 23.501098044470403,-8.88529069328569 Z M 79.67872011771695,-11.993220024137486 L 78.92527340893702,-7.050314192844667 A 132.18308067926492 132.18308067926492 0 0 1 87.76736627700193,-5.392851099065426 L 87.11461993142336,-2.4647250416126685 L 99.04778377564416,-5.439552879821333 L 89.50802319854475,-13.201187252272781 L 88.85527685296618,-10.273061194820023 A 137.18308067926492 137.18308067926492 0 0 0 79.67872011771695,-11.993220024137486"/><text text-anchor="middle" pointer-events="none" font-size="8px" fill="#000000" x="56.147393861280506" y="-8.029336195578338" font-family="sans-serif">twowheeler</text></g><g class="relationship" transform="translate(213.27589739048017 84.85607827946991) rotate(274.8864964055983)"><path class="outline" fill="#F16667" stroke="none" d="M 23.501098044470403,-8.88529069328569 L 24.79519326998301,-4.055661561840347 A 121.14984330498746 121.14984330498746 0 0 1 30.893681549153584,-5.521655201777918 L 29.85127828265648,-10.411787657038843 A 126.14984330498746 126.14984330498746 0 0 0 23.501098044470403,-8.88529069328569 Z M 76.96560365255652,-11.454711518539952 L 76.14061160029792,-6.5232423547196845 A 121.14984330498746 121.14984330498746 0 0 1 82.29799699978396,-5.3285450350129935 L 81.6505281399491,-2.399247495406586 L 93.57831202820316,-5.395573831957176 L 84.02458062601025,-13.140005140630077 L 83.37711176617539,-10.21070760102367 A 126.14984330498746 126.14984330498746 0 0 0 76.96560365255652,-11.454711518539952"/><text text-anchor="middle" pointer-events="none" font-size="8px" fill="#000000" x="53.41463441751459" y="-7.653459063376758" font-family="sans-serif">twowheeler</text></g><g class="relationship" transform="translate(223.3264588151235 -32.704203277979275) rotate(204.44745055432202)"><path class="outline" fill="#A5ABB6" stroke="none" d="M 25 0.5 L 48.828652871591856 0.5 L 48.828652871591856 -0.5 L 25 -0.5 Z M 68.16459037159186 0.5 L 91.99324324318371 0.5 L 91.99324324318371 3.5 L 98.99324324318371 0 L 91.99324324318371 -3.5 L 91.99324324318371 -0.5 L 68.16459037159186 -0.5 Z"/><text text-anchor="middle" pointer-events="none" font-size="8px" fill="#000000" x="58.496621621591856" y="3" transform="rotate(180 58.496621621591856 0)" font-family="sans-serif">trek</text></g><g class="relationship" transform="translate(110.45029743461075 -84.01985938762836) rotate(499.98405663536516)"><path class="outline" fill="#A5ABB6" stroke="none" d="M 25 0.5 L 47.44513970907254 0.5 L 47.44513970907254 -0.5 L 25 -0.5 Z M 66.78107720907255 0.5 L 89.22621691814508 0.5 L 89.22621691814508 3.5 L 96.22621691814508 0 L 89.22621691814508 -3.5 L 89.22621691814508 -0.5 L 66.78107720907255 -0.5 Z"/><text text-anchor="middle" pointer-events="none" font-size="8px" fill="#000000" x="57.11310845907254" y="3" transform="rotate(180 57.11310845907254 0)" font-family="sans-serif">trek</text></g><g class="relationship" transform="translate(213.27589739048017 84.85607827946991) rotate(274.8864964055983)"><path class="outline" fill="#A5ABB6" stroke="none" d="M 24.018736134675446,6.953439040707552 L 24.277555179777966,5.987513214418485 A 127.60333552414329 127.60333552414329 0 0 0 45.835955473561306,9.819139570530567 L 45.746084992422496,10.815093031601862 A 128.6033355241433 128.6033355241433 0 0 1 24.018736134675446,6.953439040707552 Z M 65.13702599386123,11.096704600977006 L 65.07611546358686,10.098561371123836 A 127.60333552414329 127.60333552414329 0 0 0 86.73669252315099,6.894597387784786 L 86.04471302817417,3.975494035977652 L 93.6632635931971,5.766495791473418 L 87.65933184978674,10.786735190194296 L 86.96735235480992,7.867631838387163 A 128.6033355241433 128.6033355241433 0 0 1 65.13702599386123,11.096704600977006"/><text text-anchor="middle" pointer-events="none" font-size="8px" fill="#000000" x="55.443500313259534" y="13.821984246501245" font-family="sans-serif">trek</text></g><g class="relationship" transform="translate(124.9567984680084 171.10775330260896) rotate(315.6785163619444)"><path class="outline" fill="#A5ABB6" stroke="none" d="M 24.018736134675446,6.953439040707552 L 24.277555179777966,5.987513214418485 A 138.43961054181767 138.43961054181767 0 0 0 48.56250231075079,10.222426147182091 L 48.47910233130388,11.218942300301677 A 139.43961054181767 139.43961054181767 0 0 1 24.018736134675446,6.953439040707552 Z M 67.86709092890165,11.488704836830777 L 67.81144871996132,10.490254064591994 A 138.43961054181767 138.43961054181767 0 0 0 92.20482020415076,6.932646394181599 L 91.50928681394639,4.014387786191072 L 99.13001252116273,5.796111585036472 L 93.13219805775661,10.8236578715023 L 92.43666466755224,7.905399263511774 A 139.43961054181767 139.43961054181767 0 0 1 67.86709092890165,11.488704836830777"/><text text-anchor="middle" pointer-events="none" font-size="8px" fill="#000000" x="58.17535822579701" y="14.191281385738762" font-family="sans-serif">trek</text></g><g class="relationship" transform="translate(175.55418917067558 270.32309721287686) rotate(242.97953421058776)"><path class="outline" fill="#A5ABB6" stroke="none" d="M 25 0.5 L 41.18027088458772 0.5 L 41.18027088458772 -0.5 L 25 -0.5 Z M 63.19198963458772 0.5 L 79.37226051917544 0.5 L 79.37226051917544 3.5 L 86.37226051917544 0 L 79.37226051917544 -3.5 L 79.37226051917544 -0.5 L 63.19198963458772 -0.5 Z"/><text text-anchor="middle" pointer-events="none" font-size="8px" fill="#000000" x="52.18613025958772" y="3" transform="rotate(180 52.18613025958772 0)" font-family="sans-serif">road</text></g><g class="relationship" transform="translate(175.55418917067558 270.32309721287686) rotate(242.97953421058776)"><path class="outline" fill="#A5ABB6" stroke="none" d="M 21.40063509461097,-12.933012701892217 L 21.90063509461097,-12.06698729810778 A 63.98841062707227 63.98841062707227 0 0 1 22.7475799828283,-12.547416454270412 L 22.26081589351771,-13.420949923210003 A 64.98841062707227 64.98841062707227 0 0 0 21.40063509461097,-12.933012701892217 Z M 82.0918148511712,-15.204144864164185 L 81.65793788494057,-14.30317273464268 A 63.98841062707227 63.98841062707227 0 0 1 82.53199135166595,-13.87403597896455 L 81.18938177614058,-11.19123901912812 L 89.01561918720517,-11.188413129378093 L 84.32213745236643,-17.451098592079788 L 82.97952787684106,-14.768301632243361 A 64.98841062707227 64.98841062707227 0 0 0 82.0918148511712,-15.204144864164185"/><text text-anchor="middle" pointer-events="none" font-size="8px" fill="#000000" x="51.97368966554308" y="-18.111186271576386" transform="rotate(180 51.97368966554308 -21.111186271576386)" font-family="sans-serif">PublicTransport</text></g><g class="relationship" transform="translate(223.3264588151235 -32.704203277979275) rotate(514.0961027118408)"><path class="outline" fill="#F16667" stroke="none" d="M 20.40063509461097,14.665063509461095 L 22.90063509461097,10.334936490538901 A 51.69614813410888 51.69614813410888 0 0 0 25.00947478985574,11.487960943962058 L 22.713439666481953,15.92960734054001 A 56.69614813410888 56.69614813410888 0 0 1 20.40063509461097,14.665063509461095 Z M 69.79129302807473,18.211343599114407 L 67.93555991754354,13.568472222209998 A 51.69614813410888 51.69614813410888 0 0 0 70.14602118967987,12.62479260771294 L 68.90430515471498,9.893832833474026 L 81.19430372435997,10.34763362470743 L 73.45726394958625,19.907352005683382 L 72.21554791462135,17.176392231444467 A 56.69614813410888 56.69614813410888 0 0 1 69.79129302807473,18.211343599114407"/><text text-anchor="middle" pointer-events="none" font-size="8px" fill="#000000" x="46.125048188202726" y="22.697363481404295" transform="rotate(180 46.125048188202726 19.697363481404295)" font-family="sans-serif">twowheeler</text></g><g class="relationship" transform="translate(129.81844584505862 12.70870863980042) rotate(189.5011505495035)"><path class="outline" fill="#A5ABB6" stroke="none" d="M 24.018736134675446,6.953439040707552 L 24.277555179777966,5.987513214418485 A 119.21396817311596 119.21396817311596 0 0 0 43.730498782236424,9.503125788114815 L 43.63485645124353,10.498541552769083 A 120.21396817311596 120.21396817311596 0 0 1 24.018736134675446,6.953439040707552 Z M 63.02826313037033,10.790043407825294 L 62.96258139084257,9.792202784733306 A 119.21396817311596 119.21396817311596 0 0 0 82.51239927396097,6.862839832543579 L 81.82338608762926,3.9430349025763327 L 89.44011297493982,5.741776552764155 L 83.43108352240323,10.755913072499908 L 82.74207033607152,7.8361081425326615 A 120.21396817311596 120.21396817311596 0 0 1 63.02826313037033,10.790043407825294"/><text text-anchor="middle" pointer-events="none" font-size="8px" fill="#000000" x="53.33318588731484" y="13.536109460770973" transform="rotate(180 53.33318588731484 10.536109460770973)" font-family="sans-serif">trek</text></g><g class="relationship" transform="translate(223.3264588151235 -32.704203277979275) rotate(514.0961027118408)"><path class="outline" fill="#A5ABB6" stroke="none" d="M 25 0.5 L 37.47029154650879 0.5 L 37.47029154650879 -0.5 L 25 -0.5 Z M 59.48201029650879 0.5 L 71.95230184301758 0.5 L 71.95230184301758 3.5 L 78.95230184301758 0 L 71.95230184301758 -3.5 L 71.95230184301758 -0.5 L 59.48201029650879 -0.5 Z"/><text text-anchor="middle" pointer-events="none" font-size="8px" fill="#000000" x="48.47615092150879" y="3" transform="rotate(180 48.47615092150879 0)" font-family="sans-serif">road</text></g><g class="relationship" transform="translate(129.81844584505862 12.70870863980042) rotate(189.5011505495035)"><path class="outline" fill="#F16667" stroke="none" d="M 23.501098044470403,-8.88529069328569 L 24.79519326998301,-4.055661561840347 A 112.59539350186328 112.59539350186328 0 0 1 28.845242117962947,-5.060814537624111 L 27.730996561340792,-9.935079286234682 A 117.59539350186328 117.59539350186328 0 0 0 23.501098044470403,-8.88529069328569 Z M 74.87103254978126,-11.013948751843827 L 73.98094636411908,-6.093811905973254 A 112.59539350186328 112.59539350186328 0 0 1 78.072739414937,-5.274997027610207 L 77.42966566657465,-2.3447314843245497 L 89.35294119728638,-5.3589479030196205 L 79.78760274390329,-13.089038476371961 L 79.14452899554094,-10.158772933086304 A 117.59539350186328 117.59539350186328 0 0 0 74.87103254978126,-11.013948751843827"/><text text-anchor="middle" pointer-events="none" font-size="8px" fill="#000000" x="51.303586734626144" y="-7.362125433057798" transform="rotate(180 51.303586734626144 -10.362125433057798)" font-family="sans-serif">twowheeler</text></g><g class="relationship" transform="translate(223.3264588151235 -32.704203277979275) rotate(514.0961027118408)"><path class="outline" fill="#A5ABB6" stroke="none" d="M 21.40063509461097,-12.933012701892217 L 21.90063509461097,-12.06698729810778 A 56.31273280974942 56.31273280974942 0 0 1 38.76036355980926,-18.466744844858653 L 38.55975816603727,-19.44641697163862 A 57.31273280974942 57.31273280974942 0 0 0 21.40063509461097,-12.933012701892217 Z M 57.96204284568632,-20.063681140707743 L 57.82411465837685,-19.073238908598512 A 56.31273280974942 56.31273280974942 0 0 1 75.05654112026775,-13.758088975347839 L 73.7247176565455,-11.069921149210703 L 81.55090329187477,-11.098528864352105 L 76.83230573856409,-17.342312743530687 L 75.50048227484183,-14.654144917393552 A 57.31273280974942 57.31273280974942 0 0 0 57.96204284568632,-20.063681140707743"/><text text-anchor="middle" pointer-events="none" font-size="8px" fill="#000000" x="48.25047554529063" y="-17.082733802691124" transform="rotate(180 48.25047554529063 -20.082733802691124)" font-family="sans-serif">trek</text></g><g class="relationship" transform="translate(124.9567984680084 171.10775330260896) rotate(480.2856954971186)"><path class="outline" fill="#A5ABB6" stroke="none" d="M 25 0.5 L 44.15042565745547 0.5 L 44.15042565745547 -0.5 L 25 -0.5 Z M 63.48636315745547 0.5 L 82.63678881491094 0.5 L 82.63678881491094 3.5 L 89.63678881491094 0 L 82.63678881491094 -3.5 L 82.63678881491094 -0.5 L 63.48636315745547 -0.5 Z"/><text text-anchor="middle" pointer-events="none" font-size="8px" fill="#000000" x="53.81839440745547" y="3" transform="rotate(180 53.81839440745547 0)" font-family="sans-serif">trek</text></g><g class="relationship" transform="translate(67.14408424552836 270.09908334733734) rotate(206.9672204703735)"><path class="outline" fill="#F16667" stroke="none" d="M 20.40063509461097,-14.665063509461095 L 22.90063509461097,-10.334936490538901 A 62.979109961723566 62.979109961723566 0 0 1 29.91861763801224,-13.823681827297136 L 27.975785129555593,-18.43078523877859 A 67.97910996172357 67.97910996172357 0 0 0 20.40063509461097,-14.665063509461095 Z M 75.16262545480339,-20.52105144026183 L 73.63477113374603,-15.76020475362862 A 62.979109961723566 62.979109961723566 0 0 1 80.93374621931976,-12.905667014447165 L 79.66934809619707,-10.185134458816963 L 91.96269735923276,-10.536651026022454 L 84.30547454764695,-20.160420496127706 L 83.04107642452426,-17.439887940497506 A 67.97910996172357 67.97910996172357 0 0 0 75.16262545480339,-20.52105144026183"/><text text-anchor="middle" pointer-events="none" font-size="8px" fill="#000000" x="51.492460978396885" y="-18.208387475633614" transform="rotate(180 51.492460978396885 -21.208387475633614)" font-family="sans-serif">twowheeler</text></g><g class="relationship" transform="translate(-35.0251386642845 218.11486989200745) rotate(294.77566338384287)"><path class="outline" fill="#F16667" stroke="none" d="M 20.40063509461097,14.665063509461095 L 22.90063509461097,10.334936490538901 A 62.09703166353317 62.09703166353317 0 0 0 29.526223047198734,13.649902951009508 L 27.559709735297442,18.24694824055311 A 67.09703166353317 67.09703166353317 0 0 1 20.40063509461097,14.665063509461095 Z M 74.74215254019965,20.351237915426182 L 73.19268000033446,15.597383179719202 A 62.09703166353317 62.09703166353317 0 0 0 80.08706413899512,12.885393928246144 L 78.82430265849908,10.164101322998512 L 91.11743825864981,10.52301233746702 L 83.45442808698456,20.142174208906496 L 82.19166660648852,17.420881603658863 A 67.09703166353317 67.09703166353317 0 0 1 74.74215254019965,20.351237915426182"/><text text-anchor="middle" pointer-events="none" font-size="8px" fill="#000000" x="51.07104898893568" y="24.09021288554335" font-family="sans-serif">twowheeler</text></g><g class="relationship" transform="translate(12.66247773026443 114.79417888026678) rotate(272.3427725554666)"><path class="outline" fill="#A5ABB6" stroke="none" d="M 25 0.5 L 47.31533085010225 0.5 L 47.31533085010225 -0.5 L 25 -0.5 Z M 66.65126835010224 0.5 L 88.9665992002045 0.5 L 88.9665992002045 3.5 L 95.9665992002045 0 L 88.9665992002045 -3.5 L 88.9665992002045 -0.5 L 66.65126835010224 -0.5 Z"/><text text-anchor="middle" pointer-events="none" font-size="8px" fill="#000000" x="56.98329960010225" y="3" font-family="sans-serif">trek</text></g><g class="relationship" transform="translate(-35.0251386642845 218.11486989200745) rotate(294.77566338384287)"><path class="outline" fill="#A5ABB6" stroke="none" d="M 25 0.5 L 42.39157894285672 0.5 L 42.39157894285672 -0.5 L 25 -0.5 Z M 64.40329769285671 0.5 L 81.79487663571344 0.5 L 81.79487663571344 3.5 L 88.79487663571344 0 L 81.79487663571344 -3.5 L 81.79487663571344 -0.5 L 64.40329769285671 -0.5 Z"/><text text-anchor="middle" pointer-events="none" font-size="8px" fill="#000000" x="53.39743831785672" y="3" font-family="sans-serif">road</text></g><g class="relationship" transform="translate(-35.0251386642845 218.11486989200745) rotate(294.77566338384287)"><path class="outline" fill="#A5ABB6" stroke="none" d="M 21.40063509461097,-12.933012701892217 L 21.90063509461097,-12.06698729810778 A 66.48729744738515 66.48729744738515 0 0 1 43.665309536566284,-19.976182250091384 L 43.4926604032364,-20.96116563916982 A 67.48729744738515 67.48729744738515 0 0 0 21.40063509461097,-12.933012701892217 Z M 62.89709374674527,-21.527803264356052 L 62.782215684922065,-20.53442366374422 A 66.48729744738515 66.48729744738515 0 0 1 84.97132959252966,-13.908743144129554 L 83.62549150378061,-11.227564328967777 L 91.45171984269864,-11.215317406242068 L 86.76578037752839,-17.483648231011923 L 85.41994228877934,-14.802469415850146 A 67.48729744738515 67.48729744738515 0 0 0 62.89709374674527,-21.527803264356052"/><text text-anchor="middle" pointer-events="none" font-size="8px" fill="#000000" x="53.18899096568876" y="-18.446053515531304" font-family="sans-serif">trek</text></g><g class="relationship" transform="translate(67.14408424552836 270.09908334733734) rotate(206.9672204703735)"><path class="outline" fill="#A5ABB6" stroke="none" d="M 25 0.5 L 42.81104161974223 0.5 L 42.81104161974223 -0.5 L 25 -0.5 Z M 64.82276036974223 0.5 L 82.63380198948445 0.5 L 82.63380198948445 3.5 L 89.63380198948445 0 L 82.63380198948445 -3.5 L 82.63380198948445 -0.5 L 64.82276036974223 -0.5 Z"/><text text-anchor="middle" pointer-events="none" font-size="8px" fill="#000000" x="53.81690099474223" y="3" transform="rotate(180 53.81690099474223 0)" font-family="sans-serif">road</text></g><g class="relationship" transform="translate(67.14408424552836 270.09908334733734) rotate(206.9672204703735)"><path class="outline" fill="#A5ABB6" stroke="none" d="M 21.40063509461097,12.933012701892217 L 21.90063509461097,12.06698729810778 A 67.35188304679453 67.35188304679453 0 0 0 44.083812519977435,20.1026362032227 L 43.91317491374977,21.08797005899997 A 68.35188304679453 68.35188304679453 0 0 1 21.40063509461097,12.933012701892217 Z M 63.317598986493216,21.650668869334424 L 63.204346475758655,20.657102631576564 A 67.35188304679453 67.35188304679453 0 0 0 85.81589869544284,13.920432814221828 L 84.46897323280544,11.239800090759132 L 92.29519596062869,11.224378855311672 L 87.6117993122927,17.494609778838754 L 86.2648738496553,14.813977055376059 A 68.35188304679453 68.35188304679453 0 0 1 63.317598986493216,21.650668869334424"/><text text-anchor="middle" pointer-events="none" font-size="8px" fill="#000000" x="53.609801888540666" y="24.561917886975863" transform="rotate(180 53.609801888540666 21.561917886975863)" font-family="sans-serif">trek</text></g><g class="relationship" transform="translate(213.27589739048017 84.85607827946991) rotate(220.84278698933963)"><path class="outline" fill="#F16667" stroke="none" d="M 23.501098044470403,-8.88529069328569 L 24.79519326998301,-4.055661561840347 A 105.56944507031886 105.56944507031886 0 0 1 27.177033288921585,-4.664240462629266 L 25.99574722032707,-9.522693222937278 A 110.56944507031886 110.56944507031886 0 0 0 23.501098044470403,-8.88529069328569 Z M 73.15708048295937,-10.632860067651563 L 72.20570986540343,-5.724205063676308 A 105.56944507031886 105.56944507031886 0 0 1 74.61354743724296,-5.228374062284998 L 73.9743007919516,-2.2972712448315145 L 85.8936299723152,-5.327055377427941 L 76.31820515801991,-13.044648242160957 L 75.67895851272856,-10.113545424707471 A 110.56944507031886 110.56944507031886 0 0 0 73.15708048295937,-10.632860067651563"/><text text-anchor="middle" pointer-events="none" font-size="8px" fill="#000000" x="49.57535109686151" y="-7.122923852378975" transform="rotate(180 49.57535109686151 -10.122923852378975)" font-family="sans-serif">twowheeler</text></g><g class="relationship" transform="translate(213.27589739048017 84.85607827946991) rotate(220.84278698933963)"><path class="outline" fill="#A5ABB6" stroke="none" d="M 24.018736134675446,6.953439040707552 L 24.277555179777966,5.987513214418485 A 112.33255324655651 112.33255324655651 0 0 0 42.00748565097973,9.2409052965902 L 41.906500910883054,10.235793271322834 A 113.33255324655651 113.33255324655651 0 0 1 24.018736134675446,6.953439040707552 Z M 61.302044455687906,10.535923626805513 L 61.23189086889443,9.538387424825842 A 112.33255324655651 112.33255324655651 0 0 0 79.05399560816846,6.835134344492571 L 78.36757028833865,3.9147199423406174 L 85.98270009982798,5.720210998581688 L 79.96922936794154,10.729020214028509 L 79.28280404811173,7.808605811876555 A 113.33255324655651 113.33255324655651 0 0 1 61.302044455687906,10.535923626805513"/><text text-anchor="middle" pointer-events="none" font-size="8px" fill="#000000" x="51.605575808093214" y="13.301645661217051" transform="rotate(180 51.605575808093214 10.301645661217051)" font-family="sans-serif">trek</text></g><g class="relationship" transform="translate(124.9567984680084 171.10775330260896) rotate(206.63293827738528)"><path class="outline" fill="#A5ABB6" stroke="none" d="M 25 0.5 L 49.64372031774436 0.5 L 49.64372031774436 -0.5 L 25 -0.5 Z M 68.97965781774437 0.5 L 93.62337813548872 0.5 L 93.62337813548872 3.5 L 100.62337813548872 0 L 93.62337813548872 -3.5 L 93.62337813548872 -0.5 L 68.97965781774437 -0.5 Z"/><text text-anchor="middle" pointer-events="none" font-size="8px" fill="#000000" x="59.31168906774436" y="3" transform="rotate(180 59.31168906774436 0)" font-family="sans-serif">trek</text></g><g class="relationship" transform="translate(175.55418917067558 270.32309721287686) rotate(180.11839330649963)"><path class="outline" fill="#A5ABB6" stroke="none" d="M 24.018736134675446,-6.953439040707552 L 24.277555179777966,-5.987513214418485 A 108.52131288821269 108.52131288821269 0 0 1 39.73129089563096,-8.947397598971577 L 39.61487462197088,-9.940598108046714 A 109.52131288821269 109.52131288821269 0 0 0 24.018736134675446,-6.953439040707552 Z M 61.68727407236273,-10.287812404303267 L 61.60215514827623,-9.291441605472656 A 108.52131288821269 108.52131288821269 0 0 1 77.14134361955078,-6.819097616550422 L 76.45641624799485,-3.8983315362739646 L 84.07061903545517,-5.707728096299348 L 78.05458011495868,-10.713452390252364 L 77.36965274340275,-7.792686309975907 A 109.52131288821269 109.52131288821269 0 0 0 61.68727407236273,-10.287812404303267"/><text text-anchor="middle" pointer-events="none" font-size="8px" fill="#000000" x="50.65016832809687" y="-7.171800853582482" transform="rotate(180 50.65016832809687 -10.171800853582482)" font-family="sans-serif">road</text></g><g class="relationship" transform="translate(175.55418917067558 270.32309721287686) rotate(180.11839330649963)"><path class="outline" fill="#A5ABB6" stroke="none" d="M 24.018736134675446,6.953439040707552 L 24.277555179777966,5.987513214418485 A 108.52131288821269 108.52131288821269 0 0 0 41.05490844163933,9.094315761380372 L 40.950689012182295,10.088870088968179 A 109.52131288821269 109.52131288821269 0 0 1 24.018736134675446,6.953439040707552 Z M 60.347456936221384,10.393994828103757 L 60.27457140398172,9.396654515477152 A 108.52131288821269 108.52131288821269 0 0 0 77.14134361955078,6.819097616550422 L 76.45641624799485,3.8983315362739646 L 84.07061903545517,5.707728096299348 L 78.05458011495868,10.713452390252364 L 77.36965274340275,7.792686309975907 A 109.52131288821269 109.52131288821269 0 0 1 60.347456936221384,10.393994828103757"/><text text-anchor="middle" pointer-events="none" font-size="8px" fill="#000000" x="50.650168328096896" y="13.171800853582482" transform="rotate(180 50.650168328096896 10.171800853582482)" font-family="sans-serif">trek</text></g></g><g class="layer nodes"><g class="node" transform="translate(175.55418917067558,270.32309721287686)"><circle class="outline" cx="0" cy="0" r="25" fill="#F16667" stroke="#eb2728" stroke-width="2px"/><text text-anchor="middle" pointer-events="none" font-family="sans-serif" dy="1.5625" font-size="25" fill="#FFFFFF"/><text text-anchor="middle" pointer-events="none" x="0" y="5" font-size="10px" fill="#FFFFFF" font-family="sans-serif"> Darjeeling</text></g><g class="node" transform="translate(17.607314300291414,-6.07131128693784)"><circle class="outline" cx="0" cy="0" r="25" fill="#8DCC93" stroke="#5db665" stroke-width="2px"/><text text-anchor="middle" pointer-events="none" font-family="sans-serif" dy="1.5625" font-size="25" fill="#2A2C34"/><text text-anchor="middle" pointer-events="none" x="0" y="5" font-size="10px" fill="#2A2C34" font-family="sans-serif"> Sandak…</text></g><g class="node" transform="translate(124.9567984680084,171.10775330260896)"><circle class="outline" cx="0" cy="0" r="25" fill="#F16667" stroke="#eb2728" stroke-width="2px"/><text text-anchor="middle" pointer-events="none" font-family="sans-serif" dy="1.5625" font-size="25" fill="#FFFFFF"/><text text-anchor="middle" pointer-events="none" x="0" y="5" font-size="10px" fill="#FFFFFF" font-family="sans-serif"> Rimbik</text></g><g class="node" transform="translate(213.27589739048017,84.85607827946991)"><circle class="outline" cx="0" cy="0" r="25" fill="#D9C8AE" stroke="#c0a378" stroke-width="2px"/><text text-anchor="middle" pointer-events="none" font-family="sans-serif" dy="1.5625" font-size="25" fill="#2A2C34"/><text text-anchor="middle" pointer-events="none" x="0" y="5" font-size="10px" fill="#2A2C34" font-family="sans-serif"> Sirikhola</text></g><g class="node" transform="translate(223.3264588151235,-32.704203277979275)"><circle class="outline" cx="0" cy="0" r="25" fill="#D9C8AE" stroke="#c0a378" stroke-width="2px"/><text text-anchor="middle" pointer-events="none" font-family="sans-serif" dy="1.5625" font-size="25" fill="#2A2C34"/><text text-anchor="middle" pointer-events="none" x="0" y="5" font-size="10px" fill="#2A2C34" font-family="sans-serif"> Rammam</text></g><g class="node" transform="translate(110.45029743461075,-84.01985938762836)"><circle class="outline" cx="0" cy="0" r="25" fill="#8DCC93" stroke="#5db665" stroke-width="2px"/><text text-anchor="middle" pointer-events="none" font-family="sans-serif" dy="1.5625" font-size="25" fill="#2A2C34"/><text text-anchor="middle" pointer-events="none" x="0" y="5" font-size="10px" fill="#2A2C34" font-family="sans-serif"> Sabargr…</text></g><g class="node" transform="translate(129.81844584505862,12.70870863980042)"><circle class="outline" cx="0" cy="0" r="25" fill="#D9C8AE" stroke="#c0a378" stroke-width="2px"/><text text-anchor="middle" pointer-events="none" font-family="sans-serif" dy="1.5625" font-size="25" fill="#2A2C34"/><text text-anchor="middle" pointer-events="none" x="0" y="5" font-size="10px" fill="#2A2C34" font-family="sans-serif"> Gurdum</text></g><g class="node" transform="translate(67.14408424552836,270.09908334733734)"><circle class="outline" cx="0" cy="0" r="25" fill="#D9C8AE" stroke="#c0a378" stroke-width="2px"/><text text-anchor="middle" pointer-events="none" font-family="sans-serif" dy="1.5625" font-size="25" fill="#2A2C34"/><text text-anchor="middle" pointer-events="none" x="0" y="5" font-size="10px" fill="#2A2C34" font-family="sans-serif"> Tumbling</text></g><g class="node" transform="translate(-35.0251386642845,218.11486989200745)"><circle class="outline" cx="0" cy="0" r="25" fill="#D9C8AE" stroke="#c0a378" stroke-width="2px"/><text text-anchor="middle" pointer-events="none" font-family="sans-serif" dy="1.5625" font-size="25" fill="#2A2C34"/><text text-anchor="middle" pointer-events="none" x="0" y="5" font-size="10px" fill="#2A2C34" font-family="sans-serif"> Gairibus</text></g><g class="node" transform="translate(12.66247773026443,114.79417888026678)"><circle class="outline" cx="0" cy="0" r="25" fill="#D9C8AE" stroke="#c0a378" stroke-width="2px"/><text text-anchor="middle" pointer-events="none" font-family="sans-serif" dy="1.5625" font-size="25" fill="#2A2C34"/><text text-anchor="middle" pointer-events="none" x="0" y="5" font-size="10px" fill="#2A2C34" font-family="sans-serif"> BhikeBh…</text></g></g></svg>