<svg xmlns="http://www.w3.org/2000/svg" width="276.18170166015625" height="328.88031005859375" viewBox="-49.806983947753906 -52.75147247314453 276.18170166015625 328.88031005859375"><title>Neo4j Graph Visualization</title><desc>Created using Neo4j (http://www.neo4j.com/)</desc><g class="layer relationships"><g class="relationship" transform="translate(127.85161378944062 247.12881608286241) rotate(255.6895909185746)"><path class="outline" fill="#A5ABB6" stroke="none" d="M 25 0.5 L 39.16567972881113 0.5 L 39.16567972881113 -0.5 L 25 -0.5 Z M 84.72817972881113 0.5 L 98.89385945762226 0.5 L 98.89385945762226 3.5 L 105.89385945762226 0 L 98.89385945762226 -3.5 L 98.89385945762226 -0.5 L 84.72817972881113 -0.5 Z"/><text text-anchor="middle" pointer-events="none" font-size="8px" fill="#000000" x="61.94692972881113" y="3" transform="rotate(180 61.94692972881113 0)" font-family="sans-serif">ACTED_IN</text></g><g class="relationship" transform="translate(28.557973240177102 181.01394107005746) rotate(283.4130029808756)"><path class="outline" fill="#A5ABB6" stroke="none" d="M 25 0.5 L 25.177916739765948 0.5 L 25.177916739765948 -0.5 L 25 -0.5 Z M 73.84588548976595 0.5 L 74.0238022295319 0.5 L 74.0238022295319 3.5 L 81.0238022295319 0 L 74.0238022295319 -3.5 L 74.0238022295319 -0.5 L 73.84588548976595 -0.5 Z"/><text text-anchor="middle" pointer-events="none" font-size="8px" fill="#000000" x="49.51190111476595" y="3" font-family="sans-serif">PRODUC…</text></g><g class="relationship" transform="translate(28.557973240177102 181.01394107005746) rotate(304.724906941789)"><path class="outline" fill="#A5ABB6" stroke="none" d="M 25 0.5 L 42.8217677022235 0.5 L 42.8217677022235 -0.5 L 25 -0.5 Z M 94.6030177022235 0.5 L 112.424785404447 0.5 L 112.424785404447 3.5 L 119.424785404447 0 L 112.424785404447 -3.5 L 112.424785404447 -0.5 L 94.6030177022235 -0.5 Z"/><text text-anchor="middle" pointer-events="none" font-size="8px" fill="#000000" x="68.7123927022235" y="3" font-family="sans-serif">PRODUCED</text></g><g class="relationship" transform="translate(28.557973240177102 181.01394107005746) rotate(317.79059582217224)"><path class="outline" fill="#A5ABB6" stroke="none" d="M 25 0.5 L 26.019324366928444 0.5 L 26.019324366928444 -0.5 L 25 -0.5 Z M 57.355261866928444 0.5 L 58.37458623385689 0.5 L 58.37458623385689 3.5 L 65.37458623385689 0 L 58.37458623385689 -3.5 L 58.37458623385689 -0.5 L 57.355261866928444 -0.5 Z"/><text text-anchor="middle" pointer-events="none" font-size="8px" fill="#000000" x="41.687293116928444" y="3" font-family="sans-serif">PRO…</text></g><g class="relationship" transform="translate(166.5713323671163 8.320968036006196) rotate(508.4787758893152)"><path class="outline" fill="#A5ABB6" stroke="none" d="M 25 0.5 L 39.58035912287997 0.5 L 39.58035912287997 -0.5 L 25 -0.5 Z M 86.47098412287997 0.5 L 101.05134324575994 0.5 L 101.05134324575994 3.5 L 108.05134324575994 0 L 101.05134324575994 -3.5 L 101.05134324575994 -0.5 L 86.47098412287997 -0.5 Z"/><text text-anchor="middle" pointer-events="none" font-size="8px" fill="#000000" x="63.02567162287997" y="3" transform="rotate(180 63.02567162287997 0)" font-family="sans-serif">DIRECTED</text></g><g class="relationship" transform="translate(166.5713323671163 8.320968036006196) rotate(495.9151813296687)"><path class="outline" fill="#A5ABB6" stroke="none" d="M 25 0.5 L 25.413256231127193 0.5 L 25.413256231127193 -0.5 L 25 -0.5 Z M 45.19059998112719 0.5 L 45.603856212254385 0.5 L 45.603856212254385 3.5 L 52.603856212254385 0 L 45.603856212254385 -3.5 L 45.603856212254385 -0.5 L 45.19059998112719 -0.5 Z"/><text text-anchor="middle" pointer-events="none" font-size="8px" fill="#000000" x="35.30192810612719" y="3" transform="rotate(180 35.30192810612719 0)" font-family="sans-serif">D…</text></g><g class="relationship" transform="translate(166.5713323671163 8.320968036006196) rotate(482.4042284670796)"><path class="outline" fill="#A5ABB6" stroke="none" d="M 25 0.5 L 39.36823485419549 0.5 L 39.36823485419549 -0.5 L 25 -0.5 Z M 86.25885985419549 0.5 L 100.62709470839098 0.5 L 100.62709470839098 3.5 L 107.62709470839098 0 L 100.62709470839098 -3.5 L 100.62709470839098 -0.5 L 86.25885985419549 -0.5 Z"/><text text-anchor="middle" pointer-events="none" font-size="8px" fill="#000000" x="62.81354735419549" y="3" transform="rotate(180 62.81354735419549 0)" font-family="sans-serif">DIRECTED</text></g><g class="relationship" transform="translate(175.46108474913157 153.2814025057494) rotate(211.65241867490647)"><path class="outline" fill="#A5ABB6" stroke="none" d="M 25 0.5 L 44.89569477094358 0.5 L 44.89569477094358 -0.5 L 25 -0.5 Z M 91.78631977094358 0.5 L 111.68201454188716 0.5 L 111.68201454188716 3.5 L 118.68201454188716 0 L 111.68201454188716 -3.5 L 111.68201454188716 -0.5 L 91.78631977094358 -0.5 Z"/><text text-anchor="middle" pointer-events="none" font-size="8px" fill="#000000" x="68.34100727094358" y="3" transform="rotate(180 68.34100727094358 0)" font-family="sans-serif">DIRECTED</text></g><g class="relationship" transform="translate(175.46108474913157 153.2814025057494) rotate(234.60642879905595)"><path class="outline" fill="#A5ABB6" stroke="none" d="M 25 0.5 L 28.851112209673587 0.5 L 28.851112209673587 -0.5 L 25 -0.5 Z M 75.74173720967359 0.5 L 79.59284941934717 0.5 L 79.59284941934717 3.5 L 86.59284941934717 0 L 79.59284941934717 -3.5 L 79.59284941934717 -0.5 L 75.74173720967359 -0.5 Z"/><text text-anchor="middle" pointer-events="none" font-size="8px" fill="#000000" x="52.29642470967359" y="3" transform="rotate(180 52.29642470967359 0)" font-family="sans-serif">DIRECTED</text></g><g class="relationship" transform="translate(175.46108474913157 153.2814025057494) rotate(202.4162167248628)"><path class="outline" fill="#A5ABB6" stroke="none" d="M 25 0.5 L 25.860932424392374 0.5 L 25.860932424392374 -0.5 L 25 -0.5 Z M 53.638276174392374 0.5 L 54.49920859878475 0.5 L 54.49920859878475 3.5 L 61.49920859878475 0 L 54.49920859878475 -3.5 L 54.49920859878475 -0.5 L 53.638276174392374 -0.5 Z"/><text text-anchor="middle" pointer-events="none" font-size="8px" fill="#000000" x="39.749604299392374" y="3" transform="rotate(180 39.749604299392374 0)" font-family="sans-serif">DIR…</text></g><g class="relationship" transform="translate(77.32800797707696 -23.751472823124907) rotate(463.3804185433015)"><path class="outline" fill="#A5ABB6" stroke="none" d="M 25 0.5 L 25.953457616147887 0.5 L 25.953457616147887 -0.5 L 25 -0.5 Z M 71.51595761614789 0.5 L 72.46941523229577 0.5 L 72.46941523229577 3.5 L 79.46941523229577 0 L 72.46941523229577 -3.5 L 72.46941523229577 -0.5 L 71.51595761614789 -0.5 Z"/><text text-anchor="middle" pointer-events="none" font-size="8px" fill="#000000" x="48.73470761614789" y="3" transform="rotate(180 48.73470761614789 0)" font-family="sans-serif">ACTED_IN</text></g><g class="relationship" transform="translate(77.32800797707696 -23.751472823124907) rotate(428.731784462666)"><path class="outline" fill="#A5ABB6" stroke="none" d="M 25 0.5 L 25.008591562013528 0.5 L 25.008591562013528 -0.5 L 25 -0.5 Z M 60.34452906201353 0.5 L 60.353120624027056 0.5 L 60.353120624027056 3.5 L 67.35312062402706 0 L 60.353120624027056 -3.5 L 60.353120624027056 -0.5 L 60.34452906201353 -0.5 Z"/><text text-anchor="middle" pointer-events="none" font-size="8px" fill="#000000" x="42.67656031201353" y="3" font-family="sans-serif">ACTE…</text></g><g class="relationship" transform="translate(77.32800797707696 -23.751472823124907) rotate(442.8107978025581)"><path class="outline" fill="#A5ABB6" stroke="none" d="M 25 0.5 L 46.31344527038064 0.5 L 46.31344527038064 -0.5 L 25 -0.5 Z M 91.87594527038064 0.5 L 113.18939054076128 0.5 L 113.18939054076128 3.5 L 120.18939054076128 0 L 113.18939054076128 -3.5 L 113.18939054076128 -0.5 L 91.87594527038064 -0.5 Z"/><text text-anchor="middle" pointer-events="none" font-size="8px" fill="#000000" x="69.09469527038064" y="3" font-family="sans-serif">ACTED_IN</text></g><g class="relationship" transform="translate(197.37470923013174 83.31612673387157) rotate(182.15776468795258)"><path class="outline" fill="#A5ABB6" stroke="none" d="M 25 0.5 L 45.88118544829193 0.5 L 45.88118544829193 -0.5 L 25 -0.5 Z M 91.44368544829193 0.5 L 112.32487089658386 0.5 L 112.32487089658386 3.5 L 119.32487089658386 0 L 112.32487089658386 -3.5 L 112.32487089658386 -0.5 L 91.44368544829193 -0.5 Z"/><text text-anchor="middle" pointer-events="none" font-size="8px" fill="#000000" x="68.66243544829193" y="3" transform="rotate(180 68.66243544829193 0)" font-family="sans-serif">ACTED_IN</text></g><g class="relationship" transform="translate(197.37470923013174 83.31612673387157) rotate(193.64156666282457)"><path class="outline" fill="#A5ABB6" stroke="none" d="M 25 0.5 L 26.02970321705856 0.5 L 26.02970321705856 -0.5 L 25 -0.5 Z M 56.02970321705856 0.5 L 57.05940643411712 0.5 L 57.05940643411712 3.5 L 64.05940643411712 0 L 57.05940643411712 -3.5 L 57.05940643411712 -0.5 L 56.02970321705856 -0.5 Z"/><text text-anchor="middle" pointer-events="none" font-size="8px" fill="#000000" x="41.02970321705856" y="3" transform="rotate(180 41.02970321705856 0)" font-family="sans-serif">ACT…</text></g><g class="relationship" transform="translate(197.37470923013174 83.31612673387157) rotate(520.0495596767354)"><path class="outline" fill="#A5ABB6" stroke="none" d="M 25 0.5 L 27.909218456528365 0.5 L 27.909218456528365 -0.5 L 25 -0.5 Z M 73.47171845652836 0.5 L 76.38093691305673 0.5 L 76.38093691305673 3.5 L 83.38093691305673 0 L 76.38093691305673 -3.5 L 76.38093691305673 -0.5 L 73.47171845652836 -0.5 Z"/><text text-anchor="middle" pointer-events="none" font-size="8px" fill="#000000" x="50.690468456528365" y="3" transform="rotate(180 50.690468456528365 0)" font-family="sans-serif">ACTED_IN</text></g><g class="relationship" transform="translate(-2.1170978407366148 19.188688031402357) rotate(406.7210114784674)"><path class="outline" fill="#A5ABB6" stroke="none" d="M 25 0.5 L 27.142115477879422 0.5 L 27.142115477879422 -0.5 L 25 -0.5 Z M 46.47805297787942 0.5 L 48.620168455758844 0.5 L 48.620168455758844 3.5 L 55.620168455758844 0 L 48.620168455758844 -3.5 L 48.620168455758844 -0.5 L 46.47805297787942 -0.5 Z"/><text text-anchor="middle" pointer-events="none" font-size="8px" fill="#000000" x="36.81008422787942" y="3" font-family="sans-serif">A…</text></g><g class="relationship" transform="translate(-2.1170978407366148 19.188688031402357) rotate(380.89717589763694)"><path class="outline" fill="#A5ABB6" stroke="none" d="M 25 0.5 L 34.16730816945024 0.5 L 34.16730816945024 -0.5 L 25 -0.5 Z M 79.72980816945024 0.5 L 88.89711633890047 0.5 L 88.89711633890047 3.5 L 95.89711633890047 0 L 88.89711633890047 -3.5 L 88.89711633890047 -0.5 L 79.72980816945024 -0.5 Z"/><text text-anchor="middle" pointer-events="none" font-size="8px" fill="#000000" x="56.94855816945024" y="3" font-family="sans-serif">ACTED_IN</text></g><g class="relationship" transform="translate(-2.1170978407366148 19.188688031402357) rotate(406.0069349042316)"><path class="outline" fill="#A5ABB6" stroke="none" d="M 25 0.5 L 43.98872461839622 0.5 L 43.98872461839622 -0.5 L 25 -0.5 Z M 89.55122461839622 0.5 L 108.53994923679244 0.5 L 108.53994923679244 3.5 L 115.53994923679244 0 L 108.53994923679244 -3.5 L 108.53994923679244 -0.5 L 89.55122461839622 -0.5 Z"/><text text-anchor="middle" pointer-events="none" font-size="8px" fill="#000000" x="66.76997461839622" y="3" font-family="sans-serif">ACTED_IN</text></g><g class="relationship" transform="translate(-20.806983724369154 115.90948399069383) rotate(332.78926557863315)"><path class="outline" fill="#A5ABB6" stroke="none" d="M 25 0.5 L 25.524716602570507 0.5 L 25.524716602570507 -0.5 L 25 -0.5 Z M 50.63799785257051 0.5 L 51.162714455141014 0.5 L 51.162714455141014 3.5 L 58.162714455141014 0 L 51.162714455141014 -3.5 L 51.162714455141014 -0.5 L 50.63799785257051 -0.5 Z"/><text text-anchor="middle" pointer-events="none" font-size="8px" fill="#000000" x="38.08135722757051" y="3" font-family="sans-serif">AC…</text></g><g class="relationship" transform="translate(-20.806983724369154 115.90948399069383) rotate(337.8452869843584)"><path class="outline" fill="#A5ABB6" stroke="none" d="M 25 0.5 L 44.78280342215048 0.5 L 44.78280342215048 -0.5 L 25 -0.5 Z M 90.34530342215048 0.5 L 110.12810684430096 0.5 L 110.12810684430096 3.5 L 117.12810684430096 0 L 110.12810684430096 -3.5 L 110.12810684430096 -0.5 L 90.34530342215048 -0.5 Z"/><text text-anchor="middle" pointer-events="none" font-size="8px" fill="#000000" x="67.56405342215048" y="3" font-family="sans-serif">ACTED_IN</text></g><g class="relationship" transform="translate(-20.806983724369154 115.90948399069383) rotate(362.16016185328704)"><path class="outline" fill="#A5ABB6" stroke="none" d="M 25 0.5 L 31.91255495901352 0.5 L 31.91255495901352 -0.5 L 25 -0.5 Z M 77.47505495901352 0.5 L 84.38760991802704 0.5 L 84.38760991802704 3.5 L 91.38760991802704 0 L 84.38760991802704 -3.5 L 84.38760991802704 -0.5 L 77.47505495901352 -0.5 Z"/><text text-anchor="middle" pointer-events="none" font-size="8px" fill="#000000" x="54.69380495901352" y="3" font-family="sans-serif">ACTED_IN</text></g></g><g class="layer nodes"><g class="node" transform="translate(95.49791722026525,120.2964828155859)"><circle class="outline" cx="0" cy="0" r="25" fill="#57C7E3" stroke="#23b3d7" stroke-width="2px"/><text text-anchor="middle" pointer-events="none" font-family="sans-serif" dy="1.5625" font-size="25" fill="#2A2C34"/><text text-anchor="middle" pointer-events="none" font-family="sans-serif" dy="1.5625" font-size="25" fill="#2A2C34"/><text text-anchor="middle" pointer-events="none" x="0" y="0" font-size="10px" fill="#2A2C34" font-family="sans-serif"> The</text><text text-anchor="middle" pointer-events="none" x="0" y="10" font-size="10px" fill="#2A2C34" font-family="sans-serif"> Matrix</text></g><g class="node" transform="translate(127.85161378944062,247.12881608286241)"><circle class="outline" cx="0" cy="0" r="25" fill="#F79767" stroke="#f36924" stroke-width="2px"/><text text-anchor="middle" pointer-events="none" font-family="sans-serif" dy="1.5625" font-size="25" fill="#FFFFFF"/><text text-anchor="middle" pointer-events="none" font-family="sans-serif" dy="1.5625" font-size="25" fill="#FFFFFF"/><text text-anchor="middle" pointer-events="none" x="0" y="0" font-size="10px" fill="#FFFFFF" font-family="sans-serif"> Emil</text><text text-anchor="middle" pointer-events="none" x="0" y="10" font-size="10px" fill="#FFFFFF" font-family="sans-serif"> Eifrem</text></g><g class="node" transform="translate(28.557973240177102,181.01394107005746)"><circle class="outline" cx="0" cy="0" r="25" fill="#F79767" stroke="#f36924" stroke-width="2px"/><text text-anchor="middle" pointer-events="none" font-family="sans-serif" dy="1.5625" font-size="25" fill="#FFFFFF"/><text text-anchor="middle" pointer-events="none" x="0" y="5" font-size="10px" fill="#FFFFFF" font-family="sans-serif"> Joel Silver</text></g><g class="node" transform="translate(166.5713323671163,8.320968036006196)"><circle class="outline" cx="0" cy="0" r="25" fill="#F79767" stroke="#f36924" stroke-width="2px"/><text text-anchor="middle" pointer-events="none" font-family="sans-serif" dy="1.5625" font-size="25" fill="#FFFFFF"/><text text-anchor="middle" pointer-events="none" font-family="sans-serif" dy="1.5625" font-size="25" fill="#FFFFFF"/><text text-anchor="middle" pointer-events="none" x="0" y="0" font-size="10px" fill="#FFFFFF" font-family="sans-serif"> Lana</text><text text-anchor="middle" pointer-events="none" x="0" y="10" font-size="10px" fill="#FFFFFF" font-family="sans-serif"> Wacho…</text></g><g class="node" transform="translate(175.46108474913157,153.2814025057494)"><circle class="outline" cx="0" cy="0" r="25" fill="#F79767" stroke="#f36924" stroke-width="2px"/><text text-anchor="middle" pointer-events="none" font-family="sans-serif" dy="1.5625" font-size="25" fill="#FFFFFF"/><text text-anchor="middle" pointer-events="none" font-family="sans-serif" dy="1.5625" font-size="25" fill="#FFFFFF"/><text text-anchor="middle" pointer-events="none" x="0" y="0" font-size="10px" fill="#FFFFFF" font-family="sans-serif"> Lilly</text><text text-anchor="middle" pointer-events="none" x="0" y="10" font-size="10px" fill="#FFFFFF" font-family="sans-serif"> Wacho…</text></g><g class="node" transform="translate(77.32800797707696,-23.751472823124907)"><circle class="outline" cx="0" cy="0" r="25" fill="#F79767" stroke="#f36924" stroke-width="2px"/><text text-anchor="middle" pointer-events="none" font-family="sans-serif" dy="1.5625" font-size="25" fill="#FFFFFF"/><text text-anchor="middle" pointer-events="none" font-family="sans-serif" dy="1.5625" font-size="25" fill="#FFFFFF"/><text text-anchor="middle" pointer-events="none" x="0" y="0" font-size="10px" fill="#FFFFFF" font-family="sans-serif"> Hugo</text><text text-anchor="middle" pointer-events="none" x="0" y="10" font-size="10px" fill="#FFFFFF" font-family="sans-serif"> Weaving</text></g><g class="node" transform="translate(197.37470923013174,83.31612673387157)"><circle class="outline" cx="0" cy="0" r="25" fill="#F79767" stroke="#f36924" stroke-width="2px"/><text text-anchor="middle" pointer-events="none" font-family="sans-serif" dy="1.5625" font-size="25" fill="#FFFFFF"/><text text-anchor="middle" pointer-events="none" font-family="sans-serif" dy="1.5625" font-size="25" fill="#FFFFFF"/><text text-anchor="middle" pointer-events="none" x="0" y="0" font-size="10px" fill="#FFFFFF" font-family="sans-serif"> Laurence</text><text text-anchor="middle" pointer-events="none" x="0" y="10" font-size="10px" fill="#FFFFFF" font-family="sans-serif"> Fishbur…</text></g><g class="node" transform="translate(-2.1170978407366148,19.188688031402357)"><circle class="outline" cx="0" cy="0" r="25" fill="#F79767" stroke="#f36924" stroke-width="2px"/><text text-anchor="middle" pointer-events="none" font-family="sans-serif" dy="1.5625" font-size="25" fill="#FFFFFF"/><text text-anchor="middle" pointer-events="none" x="0" y="5" font-size="10px" fill="#FFFFFF" font-family="sans-serif"> Carrie-A…</text></g><g class="node" transform="translate(-20.806983724369154,115.90948399069383)"><circle class="outline" cx="0" cy="0" r="25" fill="#F79767" stroke="#f36924" stroke-width="2px"/><text text-anchor="middle" pointer-events="none" font-family="sans-serif" dy="1.5625" font-size="25" fill="#FFFFFF"/><text text-anchor="middle" pointer-events="none" font-family="sans-serif" dy="1.5625" font-size="25" fill="#FFFFFF"/><text text-anchor="middle" pointer-events="none" x="0" y="0" font-size="10px" fill="#FFFFFF" font-family="sans-serif"> Keanu</text><text text-anchor="middle" pointer-events="none" x="0" y="10" font-size="10px" fill="#FFFFFF" font-family="sans-serif"> Reeves</text></g><g class="node" transform="translate(110.82765484186936,62.31171645620809)"><circle class="outline" cx="0" cy="0" r="25" fill="#57C7E3" stroke="#23b3d7" stroke-width="2px"/><text text-anchor="middle" pointer-events="none" font-family="sans-serif" dy="1.5625" font-size="25" fill="#2A2C34"/><text text-anchor="middle" pointer-events="none" font-family="sans-serif" dy="1.5625" font-size="25" fill="#2A2C34"/><text text-anchor="middle" pointer-events="none" font-family="sans-serif" dy="1.5625" font-size="25" fill="#2A2C34"/><text text-anchor="middle" pointer-events="none" x="0" y="-5" font-size="10px" fill="#2A2C34" font-family="sans-serif"> The</text><text text-anchor="middle" pointer-events="none" x="0" y="5" font-size="10px" fill="#2A2C34" font-family="sans-serif"> Matrix</text><text text-anchor="middle" pointer-events="none" x="0" y="15" font-size="10px" fill="#2A2C34" font-family="sans-serif"> Reloa…</text></g><g class="node" transform="translate(53.15217299338717,77.88212261568279)"><circle class="outline" cx="0" cy="0" r="25" fill="#57C7E3" stroke="#23b3d7" stroke-width="2px"/><text text-anchor="middle" pointer-events="none" font-family="sans-serif" dy="1.5625" font-size="25" fill="#2A2C34"/><text text-anchor="middle" pointer-events="none" font-family="sans-serif" dy="1.5625" font-size="25" fill="#2A2C34"/><text text-anchor="middle" pointer-events="none" font-family="sans-serif" dy="1.5625" font-size="25" fill="#2A2C34"/><text text-anchor="middle" pointer-events="none" x="0" y="-5" font-size="10px" fill="#2A2C34" font-family="sans-serif"> The</text><text text-anchor="middle" pointer-events="none" x="0" y="5" font-size="10px" fill="#2A2C34" font-family="sans-serif"> Matrix</text><text text-anchor="middle" pointer-events="none" x="0" y="15" font-size="10px" fill="#2A2C34" font-family="sans-serif"> Revol…</text></g></g></svg>