<svg xmlns="http://www.w3.org/2000/svg" width="169.95590209960938" height="245.49349975585938" viewBox="-5.864559173583984 -20.952932357788086 169.95590209960938 245.49349975585938"><title>Neo4j Graph Visualization</title><desc>Created using Neo4j (http://www.neo4j.com/)</desc><g class="layer relationships"><g class="relationship" transform="translate(135.0913336213299 8.047067770529091) rotate(525.8247408160241)"><path class="outline" fill="#A5ABB6" stroke="none" d="M 21.40063509461097,12.933012701892217 L 21.90063509461097,12.06698729810778 A 61.833820553949906 61.833820553949906 0 0 0 41.41708294087939,19.291095422526467 L 41.2327103381747,20.273951843053844 A 62.833820553949906 62.833820553949906 0 0 1 21.40063509461097,12.933012701892217 Z M 60.63676516101231,20.862727132521577 L 60.512322309686525,19.870500355643472 A 61.833820553949906 61.833820553949906 0 0 0 80.43086347092986,13.84296414776709 L 79.09114430824681,11.158722622654302 L 86.91738022330688,11.1643263556921 L 82.2171556878406,17.421952847917474 L 80.87743652515755,14.737711322804687 A 62.833820553949906 62.833820553949906 0 0 1 60.63676516101231,20.862727132521577"/><text text-anchor="middle" pointer-events="none" font-size="8px" fill="#000000" x="50.92702659805742" y="23.822473127276588" transform="rotate(180 50.92702659805742 20.822473127276588)" font-family="sans-serif">trek</text></g><g class="relationship" transform="translate(29.132904991996384 34.80999408908691) rotate(453.2347791151436)"><path class="outline" fill="#A5ABB6" stroke="none" d="M 25 0.5 L 39.97506584064627 0.5 L 39.97506584064627 -0.5 L 25 -0.5 Z M 59.31100334064627 0.5 L 74.28606918129255 0.5 L 74.28606918129255 3.5 L 81.28606918129255 0 L 74.28606918129255 -3.5 L 74.28606918129255 -0.5 L 59.31100334064627 -0.5 Z"/><text text-anchor="middle" pointer-events="none" font-size="8px" fill="#000000" x="49.64303459064627" y="3" transform="rotate(180 49.64303459064627 0)" font-family="sans-serif">trek</text></g><g class="relationship" transform="translate(23.13544162995219 140.9267172538711) rotate(390.66357248556324)"><path class="outline" fill="#A5ABB6" stroke="none" d="M 25 0.5 L 40.37543088226947 0.5 L 40.37543088226947 -0.5 L 25 -0.5 Z M 59.71136838226947 0.5 L 75.08679926453894 0.5 L 75.08679926453894 3.5 L 82.08679926453894 0 L 75.08679926453894 -3.5 L 75.08679926453894 -0.5 L 59.71136838226947 -0.5 Z"/><text text-anchor="middle" pointer-events="none" font-size="8px" fill="#000000" x="50.04339963226947" y="3" font-family="sans-serif">trek</text></g><g class="relationship" transform="translate(135.0913336213299 8.047067770529091) rotate(525.8247408160241)"><path class="outline" fill="#A5ABB6" stroke="none" d="M 25 0.5 L 40.13717042462339 0.5 L 40.13717042462339 -0.5 L 25 -0.5 Z M 62.14888917462339 0.5 L 77.28605959924678 0.5 L 77.28605959924678 3.5 L 84.28605959924678 0 L 77.28605959924678 -3.5 L 77.28605959924678 -0.5 L 62.14888917462339 -0.5 Z"/><text text-anchor="middle" pointer-events="none" font-size="8px" fill="#000000" x="51.14302979962339" y="3" transform="rotate(180 51.14302979962339 0)" font-family="sans-serif">road</text></g><g class="relationship" transform="translate(135.0913336213299 8.047067770529091) rotate(525.8247408160241)"><path class="outline" fill="#A5ABB6" stroke="none" d="M 21.40063509461097,-12.933012701892217 L 21.90063509461097,-12.06698729810778 A 61.833820553949906 61.833820553949906 0 0 1 22.37587206273927,-12.338568027642566 L 21.88355777524855,-13.208985537997513 A 62.833820553949906 62.833820553949906 0 0 0 21.40063509461097,-12.933012701892217 Z M 80.37867004526984,-14.983896863165207 L 79.94003485755243,-14.08523164624841 A 61.833820553949906 61.833820553949906 0 0 1 80.43086347092986,-13.84296414776709 L 79.09114430824681,-11.158722622654302 L 86.91738022330688,-11.1643263556921 L 82.2171556878406,-17.421952847917474 L 80.87743652515755,-14.737711322804687 A 62.833820553949906 62.833820553949906 0 0 0 80.37867004526984,-14.983896863165207"/><text text-anchor="middle" pointer-events="none" font-size="8px" fill="#000000" x="50.927026598057395" y="-17.822473127276588" transform="rotate(180 50.927026598057395 -20.822473127276588)" font-family="sans-serif">PublicTransp…</text></g></g><g class="layer nodes"><g class="node" transform="translate(135.0913336213299,8.047067770529091)"><circle class="outline" cx="0" cy="0" r="25" fill="#F16667" stroke="#eb2728" stroke-width="2px"/><text text-anchor="middle" pointer-events="none" font-family="sans-serif" dy="1.5625" font-size="25" fill="#FFFFFF"/><text text-anchor="middle" pointer-events="none" x="0" y="5" font-size="10px" fill="#FFFFFF" font-family="sans-serif"> Darjeeling</text></g><g class="node" transform="translate(115.24901024985002,195.54057129138644)"><circle class="outline" cx="0" cy="0" r="25" fill="#8DCC93" stroke="#5db665" stroke-width="2px"/><text text-anchor="middle" pointer-events="none" font-family="sans-serif" dy="1.5625" font-size="25" fill="#2A2C34"/><text text-anchor="middle" pointer-events="none" x="0" y="5" font-size="10px" fill="#2A2C34" font-family="sans-serif"> Sandak…</text></g><g class="node" transform="translate(29.132904991996384,34.80999408908691)"><circle class="outline" cx="0" cy="0" r="25" fill="#F16667" stroke="#eb2728" stroke-width="2px"/><text text-anchor="middle" pointer-events="none" font-family="sans-serif" dy="1.5625" font-size="25" fill="#FFFFFF"/><text text-anchor="middle" pointer-events="none" x="0" y="5" font-size="10px" fill="#FFFFFF" font-family="sans-serif"> Rimbik</text></g><g class="node" transform="translate(23.13544162995219,140.9267172538711)"><circle class="outline" cx="0" cy="0" r="25" fill="#D9C8AE" stroke="#c0a378" stroke-width="2px"/><text text-anchor="middle" pointer-events="none" font-family="sans-serif" dy="1.5625" font-size="25" fill="#2A2C34"/><text text-anchor="middle" pointer-events="none" x="0" y="5" font-size="10px" fill="#2A2C34" font-family="sans-serif"> BhikeBh…</text></g></g></svg>